<svg width="403" height="231" viewBox="0 0 403 231" fill="none" xmlns="http://www.w3.org/2000/svg">
<rect x="12" y="30" width="375" height="172" fill="black" fill-opacity="0.74"/>
<path d="M170.612 32.3421C168.796 33.2017 153.14 32.6219 152.146 32.6267C151.153 32.6315 148.433 34.3878 148.418 34.8086C148.403 35.2294 151.028 38.2384 152.492 38.0167C153.956 37.7951 157.888 37.539 162.782 37.6042C206.139 40.0452 288.093 34.5159 288.093 34.5159L286.109 32.0112L178.673 22.5886L169.98 31.8851C170.952 31.8829 171.366 31.9788 170.612 32.3421Z" fill="url(#paint0_linear_1_724)"/>
<path d="M151.028 31.7921C155.612 31.2172 161.157 31.5921 164.409 31.8678C165.687 31.9744 167.184 31.9422 168.437 31.9066C169.032 31.9006 169.557 31.8706 169.98 31.8851L178.673 22.5886L159.699 20.4678C159.282 20.4849 158.819 20.4914 158.329 20.4688C155.067 20.3877 150.292 30.2355 149.128 30.7763C148.932 31.428 149.852 31.2546 151.028 31.7921Z" fill="#71390B"/>
<path d="M281.23 22.9355C281.585 22.9419 281.934 22.9167 282.264 22.9098C280.897 22.9266 279.752 22.9493 281.23 22.9355Z" fill="#71390B"/>
<path d="M156.556 19.5507C159.164 19.3063 163.243 20.0159 163.243 20.0159C163.243 20.0159 162.051 20.3988 159.701 20.4836L286.13 32.0086L288.115 34.5133C288.115 34.5133 287.115 23.8664 286.587 23.6228C285.603 23.1753 285.535 23.0383 284.568 22.9433C284.186 22.9079 283.168 22.8995 282.264 22.9098C281.934 22.9167 281.585 22.9419 281.23 22.9355C279.752 22.9494 280.919 22.9241 282.264 22.9098C284.213 22.808 285.712 22.5339 286.127 22.259C286.624 21.9423 285.738 17.3738 285.738 17.3738C285.738 17.3738 284.898 16.4902 282.941 16.4157C280.981 16.3255 280.883 16.2726 282.848 16.2655C284.811 16.2427 284.826 15.8219 284.835 15.4985C284.894 13.6865 283.183 11.9875 282.041 11.8972C280.898 11.8068 249.299 13.6787 239.168 13.9918C226.761 13.8008 176.748 15.2422 166.316 15.3492C155.86 15.443 150.672 19.0064 150.672 19.0064L151.995 19.6233C151.989 19.5917 153.944 19.7793 156.556 19.5507Z" fill="#71390B"/>
<path d="M278.438 12.1467C277.239 12.2402 276.008 12.2732 274.784 12.3536C271.291 12.59 247.2 12.7993 243.717 12.97C241.527 13.0842 239.332 13.1668 237.134 13.2336C224.725 13.0268 174.715 14.484 164.258 14.5778C153.802 14.6716 151.154 16.081 151.154 16.081L150.59 19.0485C150.59 19.0485 151.892 19.0394 154.503 18.8108C157.134 18.5639 161.191 19.276 161.191 19.276C161.191 19.276 159.542 19.8259 156.28 19.7447C153.018 19.6636 151.236 19.5844 150.071 20.1252C148.854 22.8962 148.685 29.8942 148.976 31.0523C153.56 30.4774 159.105 30.8523 162.359 31.1438C163.637 31.2503 165.134 31.2181 166.387 31.1826C168.323 31.1307 169.662 31.0849 168.538 31.6048C166.725 32.4802 151.066 31.8846 150.094 31.8868C149.101 31.8917 148.41 34.1329 148.395 34.5537C148.38 34.9745 149.019 35.7207 150.502 35.4807C151.987 35.2565 155.898 35.003 160.792 35.0682C204.148 37.5092 286.103 31.9799 286.103 31.9799C286.103 31.9799 286.03 31.1827 285.901 30.0698C285.879 29.9435 285.857 29.8172 285.857 29.6883C285.776 29.1016 285.704 28.4333 285.609 27.7677C285.493 26.8468 285.351 25.9127 285.211 25.1074C285.081 24.3654 284.946 23.7206 284.81 23.3178C284.717 23.0387 284.621 22.8727 284.532 22.8672C283.872 22.8809 277.829 22.8227 276.863 22.7277C275.896 22.6326 276.704 22.1985 279.154 22.1825C281.603 22.1664 283.576 21.8201 284.073 21.5034C284.351 21.3254 284.354 19.8263 284.293 18.5926C284.238 17.6483 284.179 16.9301 284.179 16.9301C284.179 16.9301 283.546 16.2154 281.586 16.1251C279.626 16.0349 278.828 15.5169 280.791 15.4941C282.753 15.4713 282.707 15.3317 282.922 15.0483C283.084 14.8358 282.977 14.4778 282.949 14.191C282.949 14.191 282.47 11.8304 281.875 11.8364C281.309 11.8873 278.438 12.1467 278.438 12.1467Z" fill="#DC8E36"/>
<path d="M282.821 16.2365C282.778 16.2417 282.645 16.2413 282.467 16.2302C282.488 16.2276 282.513 16.2408 282.513 16.2408C282.556 16.2357 282.58 16.2489 282.624 16.2438C282.689 16.2361 282.756 16.2442 282.821 16.2365Z" fill="#6C3203"/>
<path d="M284.368 19.1475L284.669 19.0958C284.669 19.0958 284.561 19.1086 284.363 19.1159C284.363 19.1159 284.366 19.1317 284.368 19.1475Z" fill="#6C3203"/>
<path d="M285.754 28.7173C285.843 28.7236 285.887 28.7185 285.887 28.7185C285.887 28.7185 285.843 28.7236 285.754 28.7173Z" fill="#6C3203"/>
<path d="M149.92 20.7715C149.92 20.7715 164.132 20.4263 166.746 20.0846C169.208 19.7608 205.861 18.6121 213.979 18.5373C214.507 18.5232 214.951 18.5351 215.284 18.544C216.949 18.5886 219.623 18.5943 222.557 18.5692C229.129 18.5001 237.16 18.3068 238.954 18.2071C241.474 18.0861 279.232 16.3069 282.513 16.2408C282.513 16.2408 282.469 16.2459 282.467 16.2301C281.868 16.2204 280.604 16.1928 278.907 16.2165C276.127 16.2394 272.194 16.3666 268.228 16.804C262.937 17.382 236.054 17.922 230.208 17.9696C227.912 17.9835 225.698 17.9556 223.619 17.815C222.947 17.7656 221.973 17.7521 220.738 17.7693C208.387 17.894 163.595 19.8776 159.867 19.916C155.813 19.977 149.92 20.7715 149.92 20.7715Z" fill="#CA7021"/>
<path d="M282.76 13.359L282.738 13.3616C282.76 13.359 282.76 13.359 282.76 13.359ZM170.425 16.861C170.425 16.861 181.844 16.5887 183.96 16.306C185.949 16.0544 216.807 15.2533 223.336 15.1894C223.756 15.188 224.132 15.1918 224.397 15.1927C225.751 15.2258 227.895 15.2298 230.255 15.2082C235.528 15.164 241.994 14.9947 243.44 14.9203C245.478 14.8241 280.11 13.3666 282.581 13.348C282.646 13.3403 282.692 13.3509 282.757 13.3432C282.557 13.3347 281.382 13.3127 279.617 13.3282C277.368 13.3528 274.204 13.4535 271.016 13.7987C266.768 14.2694 241.103 14.6974 236.404 14.7381C234.552 14.7639 232.776 14.7163 231.103 14.6243C230.567 14.5911 229.793 14.5861 228.8 14.5909C218.874 14.6863 181.461 16.1667 178.459 16.1837C175.154 16.2366 170.425 16.861 170.425 16.861Z" fill="#CA7021"/>
<path d="M148.91 27.2566C149.348 27.2369 158.115 26.199 161.035 25.9661C164.153 25.7259 198.187 23.3723 202.119 23.1163C206.051 22.8602 231.227 21.0236 234.651 20.8922C237.306 20.7873 274.087 19.7363 281.256 19.2904C273.285 19.5734 229.564 20.4793 221.111 20.916C210.819 21.4416 184.949 22.9736 179.068 23.4603C173.185 23.9313 149.597 27.143 148.91 27.2566C148.932 27.2541 148.932 27.2541 148.91 27.2566Z" fill="#CA7021"/>
<path d="M235.295 34.5625C232.697 33.8548 197.923 32.6056 192.209 32.6536C186.495 32.7016 159.39 33.4934 156.283 33.539C153.173 33.5688 150.549 34.2339 150.699 34.3291C151.193 33.9966 179.611 33.5166 192.032 33.2869C192.563 33.2885 200.168 33.8223 200.742 33.8189C213.515 33.7086 235.295 34.5625 235.295 34.5625Z" fill="#CA7021"/>
<path d="M149.001 31.0652C149.001 31.0652 149.98 30.8526 150.803 30.6263C150.803 30.6263 176.836 27.6247 183.521 27.4455C190.209 27.2821 207.73 26.1424 210.187 25.916C210.36 25.8955 210.403 25.8904 210.36 25.8955C209.765 25.9015 183.213 26.8212 178.958 26.8738C174.567 26.9101 151.176 29.0994 148.859 29.7445C148.899 30.3522 148.938 30.8309 149.001 31.0652Z" fill="#CA7021"/>
<path d="M269.927 28.9312C277.052 28.8612 284.677 28.7481 285.757 28.733C283.832 28.7192 240.729 28.4882 238.369 28.5098C235.919 28.5259 212.748 28.433 212.748 28.433C212.748 28.433 227.197 25.014 229.664 24.4641C232.13 23.9142 270.064 22.0014 272.342 21.7639C274.642 21.5238 284.314 19.8469 284.314 19.8469C284.314 19.8469 276.307 20.5532 271.547 21.1329C266.809 21.7099 236.25 22.0728 228.041 24.1566C219.833 26.2405 208.816 28.6891 208.816 28.6891C208.816 28.6891 231.98 28.9923 239.343 29.0231C241.795 29.0228 266.089 28.9666 269.927 28.9312Z" fill="#CA7021"/>
<path d="M274.551 23.2752C276.158 22.9882 276.893 22.7722 276.893 22.7722C276.893 22.7722 275.979 22.9771 274.551 23.2752ZM284.979 26.1821C284.979 26.1821 274.545 25.6448 271.126 25.6789C267.708 25.713 238.3 25.8427 241.083 25.7067C243.099 25.613 270.823 24.071 274.572 23.2726C273.91 23.3994 273.114 23.5258 272.164 23.6544C268.885 24.1071 230.631 26.3318 234.532 26.4018C238.414 26.4901 284.649 26.189 284.979 26.1821Z" fill="#CA7021"/>
<path opacity="0.36" d="M281.272 29.7474C277.949 30.705 194.433 34.1307 183.502 33.9101C172.568 33.6736 165.523 33.8148 171.897 32.2382C178.272 30.6615 159.591 30.4721 152.531 30.2766C150.799 30.2239 149.653 30.1178 148.897 29.9655C148.918 30.4627 148.963 30.8441 148.999 31.0494C153.582 30.4745 159.127 30.8494 162.382 31.1409C163.66 31.2474 165.157 31.2152 166.41 31.1797C168.345 31.1278 169.685 31.082 168.56 31.6019C166.747 32.4773 151.088 31.8817 150.117 31.884C149.123 31.8888 148.432 34.1301 148.417 34.5508C148.403 34.9716 149.041 35.7179 150.524 35.4779C152.009 35.2537 155.92 35.0001 160.814 35.0653C204.17 37.5063 286.125 31.977 286.125 31.977C286.125 31.977 286.052 31.1799 285.924 30.067C285.902 29.9406 285.879 29.8143 285.879 29.6855C285.799 29.0987 285.726 28.4305 285.632 27.7648C285.618 27.6858 285.607 27.6227 285.596 27.5595C284.891 28.9644 283.649 29.0631 281.272 29.7474Z" fill="#DC8E36"/>
<path opacity="0.42" d="M153.873 21.0125C160.665 20.434 184.186 19.7442 176.879 18.7721C169.551 17.8025 196.277 16.4915 212.48 16.2814C228.683 16.0713 268.674 15.9454 262.166 16.6353C255.658 17.3253 260.084 17.2364 268.53 17.3968C276.976 17.5571 280.836 18.2765 283.328 18.8839C283.721 18.9824 284.065 19.0545 284.385 19.1134C284.376 18.9371 284.389 18.7583 284.361 18.6004C284.307 17.6561 284.247 16.9379 284.247 16.9379C284.247 16.9379 283.614 16.2232 281.654 16.133C279.694 16.0427 278.897 15.5248 280.859 15.5019C282.821 15.4791 282.775 15.3395 282.991 15.0562C283.152 14.8436 283.045 14.4856 283.017 14.1988C283.017 14.1988 282.539 11.8382 281.943 11.8443C281.326 11.8529 278.476 12.1097 278.476 12.1097C277.278 12.2033 276.046 12.2363 274.823 12.3166C271.329 12.553 247.238 12.7623 243.755 12.933C241.566 13.0472 239.371 13.1298 237.173 13.1966C224.764 12.9898 174.753 14.447 164.297 14.5408C153.84 14.6346 151.192 16.044 151.192 16.044L150.628 19.0115C150.628 19.0115 151.93 19.0024 154.542 18.7738C157.172 18.5269 161.229 19.239 161.229 19.239C161.229 19.239 159.58 19.7889 156.318 19.7077C153.056 19.6266 151.274 19.5474 150.11 20.0883C149.795 20.8184 149.55 21.8144 149.369 22.9317C150.203 22.0111 151.586 21.2027 153.873 21.0125Z" fill="#DC8E36"/>
<path d="M278.873 22.2155C278.026 21.4133 276.83 20.8941 274.971 21.0015C271.231 21.2187 267.729 22.294 264.161 23.1193C263.269 23.3217 261.252 24.044 260.287 23.8358C260.057 23.7825 259.675 23.7471 259.475 23.6097C258.508 22.8861 258.213 23.4691 257.364 23.7952C256.185 24.2571 254.278 23.7093 252.893 24.1311C251.298 24.6101 249.624 25.1467 248.235 25.9235C245.495 27.4404 247.693 31.2897 249.101 34.0399C264.861 33.3181 277.562 32.5396 283.113 32.1886C282.49 29.7644 281.822 27.3295 280.709 25.0117C280.333 24.2504 279.957 23.4892 279.468 22.838C278.293 22.816 277.272 22.7918 276.934 22.7513C275.97 22.672 276.697 22.2798 278.873 22.2155Z" fill="#DC8E36"/>
<path d="M287.643 27.463C285.916 28.056 272.256 25.8177 271.382 25.714C270.509 25.6102 267.851 26.9294 267.773 27.3148C267.696 27.7002 269.539 30.7537 270.859 30.7092C272.178 30.6647 275.671 30.8574 279.959 31.4503C317.66 38.417 390.482 42.2561 390.482 42.2561L389.124 39.7362L296.219 19.3699L287.158 26.9739C288.011 27.0777 288.361 27.2111 287.643 27.463Z" fill="url(#paint1_linear_1_724)"/>
<path d="M270.529 24.8246C274.642 24.795 279.454 25.7436 282.268 26.3514C283.374 26.5885 284.693 26.7219 285.799 26.8257C286.323 26.885 286.789 26.9146 287.158 26.9739L296.219 19.3699L279.881 15.3529C279.513 15.3233 279.105 15.2788 278.678 15.2047C275.826 14.7749 270.121 23.3127 269.015 23.6833C268.744 24.2614 269.578 24.2021 270.529 24.8246Z" fill="#71390B"/>
<path d="M386.233 30.8574C386.543 30.9019 386.854 30.9167 387.145 30.9464C385.942 30.813 384.933 30.7092 386.233 30.8574Z" fill="#71390B"/>
<path d="M277.262 14.1671C279.59 14.2264 283.064 15.3233 283.064 15.3233C283.064 15.3233 281.958 15.5456 279.881 15.3677L389.143 39.7362L390.502 42.256C390.502 42.256 391.258 32.3545 390.831 32.0729C390.036 31.5541 389.997 31.4207 389.163 31.228C388.833 31.1539 387.94 31.0353 387.145 30.9463C386.854 30.9167 386.543 30.9019 386.233 30.8574C384.933 30.7092 385.961 30.8129 387.145 30.9463C388.872 31.0649 390.23 30.976 390.637 30.7685C391.122 30.5313 391.045 26.2327 391.045 26.2327C391.045 26.2327 390.443 25.3286 388.736 25.0469C387.028 24.7505 386.951 24.6912 388.678 24.8987C390.405 25.0914 390.482 24.706 390.54 24.4096C390.87 22.7494 389.628 21.0003 388.639 20.7928C387.649 20.5853 359.611 18.8659 350.666 18.0506C339.8 16.5239 295.657 12.4032 286.479 11.3656C277.281 10.3132 272.178 13.0257 272.178 13.0257L273.245 13.7372C273.245 13.7076 274.933 14.093 277.262 14.1671Z" fill="#71390B"/>
<path d="M385.437 20.63C384.37 20.5855 383.283 20.4818 382.197 20.4225C379.092 20.2594 357.903 17.8285 354.818 17.6062C352.878 17.4728 350.937 17.3097 348.997 17.1318C338.131 15.5903 293.988 11.4844 284.79 10.432C275.593 9.3796 273.051 10.3875 273.051 10.3875L272.1 13.0556C272.1 13.0556 273.245 13.189 275.574 13.2631C277.922 13.3224 281.375 14.4193 281.375 14.4193C281.375 14.4193 279.842 14.7454 276.99 14.3155C274.138 13.8857 272.586 13.6189 271.48 13.9894C269.985 16.4055 268.763 22.8238 268.841 23.9206C272.954 23.891 277.766 24.8396 280.58 25.4622C281.686 25.6993 283.005 25.8328 284.111 25.9365C285.819 26.0996 287.002 26.2033 285.935 26.5591C284.208 27.1668 270.548 24.9137 269.694 24.81C268.821 24.7062 267.87 26.6925 267.793 27.0779C267.715 27.4632 268.161 28.2192 269.5 28.1599C270.839 28.1154 274.312 28.3081 278.601 28.901C316.302 35.8677 389.124 39.7068 389.124 39.7068C389.124 39.7068 389.182 38.9656 389.24 37.928C389.24 37.8095 389.24 37.6909 389.26 37.5723C389.279 37.0239 389.318 36.4013 389.337 35.7788C389.376 34.919 389.396 34.0445 389.396 33.2886C389.396 32.5919 389.376 31.9842 389.318 31.5988C389.279 31.332 389.221 31.1689 389.143 31.1541C388.561 31.0948 383.264 30.3833 382.43 30.1906C381.595 29.9979 382.371 29.6866 384.525 29.9386C386.679 30.1906 388.464 30.0869 388.949 29.8497C389.221 29.7163 389.454 28.3378 389.59 27.1964C389.687 26.3219 389.745 25.6549 389.745 25.6549C389.745 25.6549 389.299 24.9286 387.591 24.6321C385.883 24.3357 385.263 23.7724 386.989 23.9651C388.716 24.1578 388.697 24.0244 388.93 23.7872C389.104 23.6094 389.066 23.2684 389.085 23.0016C389.085 23.0016 389.027 20.7782 388.503 20.7189C387.998 20.7041 385.437 20.63 385.437 20.63Z" fill="#DC8E36"/>
<path d="M388.658 24.8691C388.619 24.8691 388.503 24.8543 388.348 24.8246C388.367 24.8246 388.387 24.8394 388.387 24.8394C388.425 24.8394 388.445 24.8543 388.484 24.8543C388.542 24.8543 388.6 24.8691 388.658 24.8691Z" fill="#6C3203"/>
<path d="M389.57 27.715L389.842 27.7002C389.842 27.7002 389.745 27.7002 389.57 27.6854C389.57 27.6854 389.57 27.7002 389.57 27.715Z" fill="#6C3203"/>
<path d="M389.318 36.6679C389.395 36.6835 389.434 36.6835 389.434 36.6835C389.434 36.6835 389.395 36.6835 389.318 36.6679Z" fill="#6C3203"/>
<path d="M271.247 14.5673C271.247 14.5673 283.781 15.7976 286.129 15.768C288.341 15.7383 320.707 18.6732 327.847 19.4885C328.313 19.5329 328.701 19.5922 328.992 19.6367C330.447 19.859 332.795 20.1555 335.376 20.4519C341.158 21.1041 348.24 21.8008 349.831 21.9045C352.063 22.0676 385.495 24.543 388.386 24.8394C388.386 24.8394 388.348 24.8394 388.348 24.8246C387.824 24.7505 386.718 24.5874 385.224 24.4244C382.779 24.1428 379.306 23.8315 375.755 23.8018C371.02 23.7574 347.328 21.3265 342.186 20.7336C340.168 20.4964 338.228 20.2296 336.424 19.8738C335.841 19.7553 334.988 19.6367 333.901 19.5181C323.035 18.2878 283.393 15.2343 280.114 14.8638C276.544 14.4784 271.247 14.5673 271.247 14.5673Z" fill="#CA7021"/>
<path d="M389.046 22.2158H389.027C389.046 22.2158 389.046 22.2158 389.046 22.2158ZM289.855 13.2036C289.855 13.2036 299.925 14.1968 301.827 14.1671C303.612 14.1523 330.835 16.7759 336.579 17.4281C336.947 17.4726 337.277 17.517 337.51 17.5467C338.694 17.7246 340.576 17.9617 342.652 18.1989C347.29 18.7325 352.994 19.2809 354.275 19.3699C356.079 19.5033 386.718 21.9342 388.891 22.1862C388.949 22.1862 388.988 22.201 389.046 22.201C388.872 22.1714 387.843 22.0231 386.291 21.8453C384.312 21.6229 381.518 21.3709 378.665 21.3413C374.862 21.3116 352.257 18.9104 348.124 18.436C346.494 18.2582 344.942 18.021 343.486 17.7542C343.021 17.6653 342.342 17.5763 341.469 17.4726C332.737 16.4794 299.654 13.7669 297.015 13.4556C294.104 13.1443 289.855 13.2036 289.855 13.2036Z" fill="#CA7021"/>
<path d="M269.365 20.4223C269.753 20.4519 277.611 20.4519 280.211 20.5557C282.986 20.6742 313.236 22.2158 316.729 22.4085C320.221 22.6012 342.613 23.6536 345.64 23.9056C347.988 24.0983 380.45 27.1369 386.815 27.5075C379.771 26.8998 341.236 22.9718 333.746 22.453C324.626 21.8156 301.672 20.4074 296.433 20.2147C291.194 20.0072 269.985 20.3926 269.365 20.4223C269.384 20.4223 269.384 20.4223 269.365 20.4223Z" fill="#CA7021"/>
<path d="M344.107 36.5493C341.934 35.6155 311.587 30.6795 306.561 30.1014C301.536 29.5234 277.611 27.3 274.875 27.0035C272.139 26.6922 269.733 27.0183 269.85 27.1221C270.335 26.8701 295.365 29.5234 306.309 30.6647C306.775 30.724 313.372 32.0432 313.877 32.1025C325.111 33.3921 344.107 36.5493 344.107 36.5493Z" fill="#CA7021"/>
<path d="M268.86 23.9352C268.86 23.9352 269.753 23.8463 270.509 23.7277C270.509 23.7277 293.833 23.8018 299.731 24.3651C305.63 24.9432 321.192 25.8029 323.384 25.8622C323.54 25.8622 323.578 25.8622 323.54 25.8622C323.016 25.8029 299.557 23.7574 295.812 23.3423C291.95 22.8977 271.072 22.364 268.938 22.705C268.879 23.2682 268.841 23.7129 268.86 23.9352Z" fill="#CA7021"/>
<path d="M375.386 35.1412C381.653 35.8527 388.367 36.579 389.318 36.6827C387.63 36.4604 349.812 31.5541 347.736 31.3169C345.582 31.0649 325.247 28.4562 325.247 28.4562C325.247 28.4562 338.461 26.885 340.712 26.6478C342.963 26.4106 376.57 28.7823 378.607 28.8119C380.664 28.8415 389.415 28.3524 389.415 28.3524C389.415 28.3524 382.274 28.1301 378.006 28.1449C373.756 28.1597 346.863 25.1655 339.334 26.1883C331.805 27.2111 321.754 28.2635 321.754 28.2635C321.754 28.2635 342.051 31.0649 348.512 31.895C350.666 32.1618 372.01 34.7558 375.386 35.1412Z" fill="#CA7021"/>
<path d="M380.315 30.4424C381.77 30.3534 382.449 30.2349 382.449 30.2349C382.449 30.2349 381.615 30.3238 380.315 30.4424ZM389.027 34.2518C389.027 34.2518 379.946 32.6213 376.938 32.2804C373.931 31.9395 348.085 28.8564 350.549 29.0342C352.335 29.1676 376.919 30.7685 380.334 30.4424C379.732 30.4869 379.015 30.5165 378.161 30.5313C375.211 30.5906 341.274 28.471 344.689 28.9601C348.085 29.4641 388.736 34.2222 389.027 34.2518Z" fill="#CA7021"/>
<path opacity="0.36" d="M385.224 37.1274C382.158 37.6462 308.288 31.7023 298.722 30.309C289.156 28.9008 282.947 28.2635 288.788 27.5075C294.628 26.7515 278.251 24.543 272.081 23.5943C270.568 23.3572 269.578 23.1348 268.938 22.9125C268.879 23.372 268.86 23.7277 268.86 23.9204C272.974 23.8908 277.786 24.8394 280.599 25.462C281.705 25.6991 283.025 25.8325 284.131 25.9363C285.838 26.0994 287.022 26.2031 285.955 26.5589C284.228 27.1666 270.568 24.9135 269.714 24.8098C268.841 24.706 267.89 26.6923 267.812 27.0776C267.735 27.463 268.181 28.219 269.52 28.1597C270.859 28.1152 274.332 28.3079 278.62 28.9008C316.321 35.8675 389.143 39.7066 389.143 39.7066C389.143 39.7066 389.202 38.9654 389.26 37.9278C389.26 37.8093 389.26 37.6907 389.279 37.5721C389.299 37.0237 389.337 36.4011 389.357 35.7786C389.357 35.7044 389.357 35.6451 389.357 35.5859C388.522 36.8013 387.416 36.7568 385.224 37.1274Z" fill="#DC8E36"/>
<path opacity="0.42" d="M274.681 15.2195C280.735 15.427 301.497 17.354 295.23 15.6642C288.943 13.9744 312.615 15.679 326.877 17.2502C341.139 18.8214 376.279 23.0607 370.457 22.9866C364.636 22.9125 368.537 23.3127 375.929 24.3799C383.322 25.4471 386.601 26.5292 388.697 27.3593C389.027 27.4927 389.318 27.5964 389.59 27.6854C389.609 27.5223 389.648 27.3593 389.648 27.211C389.745 26.3365 389.803 25.6695 389.803 25.6695C389.803 25.6695 389.357 24.9432 387.649 24.6467C385.942 24.3503 385.321 23.787 387.048 23.9797C388.775 24.1724 388.755 24.039 388.988 23.8018C389.163 23.624 389.124 23.283 389.143 23.0162C389.143 23.0162 389.085 20.7928 388.561 20.7335C388.018 20.6743 385.476 20.6001 385.476 20.6001C384.409 20.5557 383.322 20.4519 382.236 20.3926C379.131 20.2296 357.942 17.7987 354.857 17.5763C352.917 17.4429 350.976 17.2799 349.036 17.102C338.17 15.5604 294.026 11.4546 284.829 10.4021C275.632 9.34973 273.09 10.3577 273.09 10.3577L272.139 13.0258C272.139 13.0258 273.284 13.1592 275.612 13.2333C277.96 13.2926 281.414 14.3894 281.414 14.3894C281.414 14.3894 279.881 14.7155 277.029 14.2857C274.177 13.8558 272.624 13.589 271.518 13.9596C271.13 14.597 270.762 15.4863 270.432 16.4943C271.305 15.7383 272.644 15.1454 274.681 15.2195Z" fill="#DC8E36"/>
<path d="M384.273 29.9384C383.652 29.1084 382.682 28.5006 381.033 28.3969C377.715 28.1894 374.474 28.7971 371.214 29.1677C370.399 29.2566 368.517 29.7013 367.702 29.4048C367.508 29.3307 367.178 29.2566 367.023 29.1084C366.286 28.3376 365.936 28.8416 365.141 29.0491C364.035 29.3455 362.444 28.634 361.163 28.8712C359.689 29.138 358.136 29.4493 356.797 30.0125C354.158 31.1094 355.497 34.8892 356.312 37.5721C370.264 38.6245 381.537 39.2915 386.466 39.5732C386.291 37.2757 386.077 34.9633 385.457 32.7103C385.243 31.9691 385.03 31.228 384.7 30.5758C383.671 30.4276 382.779 30.2942 382.488 30.2201C381.653 30.0422 382.352 29.7606 384.273 29.9384Z" fill="#DC8E36"/>
<path d="M28.5264 33.132C26.8189 33.8338 11.6452 33.5307 10.6944 33.5467C9.74365 33.5626 7.18237 34.9664 7.20177 35.3013C7.20177 35.6363 9.87947 37.9652 11.2959 37.7738C12.7124 37.5824 16.4961 37.3431 21.2306 37.3431C63.2783 38.8106 165.342 33.7541 165.342 33.7541L163.304 31.792L35.861 25.3796L27.8861 32.797C28.8368 32.7651 29.2443 32.8448 28.5264 33.132Z" fill="url(#paint2_linear_1_724)"/>
<path d="M9.56901 32.9086C13.9736 32.4141 19.3485 32.6374 22.5113 32.8289C23.7531 32.9086 25.2084 32.8608 26.4114 32.8289C26.9741 32.8129 27.4786 32.797 27.9055 32.797L35.8804 25.3796L17.4469 23.9121C17.0394 23.928 16.5931 23.928 16.108 23.928C12.9453 23.8961 8.79287 31.6963 7.70626 32.1429C7.53163 32.6374 8.40479 32.4939 9.56901 32.9086Z" fill="#71390B"/>
<path d="M158.123 24.7256C158.473 24.7096 158.803 24.7096 159.132 24.6937C157.813 24.7096 156.707 24.7415 158.123 24.7256Z" fill="#71390B"/>
<path d="M14.3229 23.1943C16.8454 22.9869 20.8037 23.4973 20.8037 23.4973C20.8037 23.4973 19.6783 23.8164 17.4081 23.8961L163.304 31.808L165.342 33.77C165.342 33.77 163.867 25.3955 163.362 25.2041C162.392 24.8532 162.315 24.7575 161.364 24.6937C160.976 24.6618 160.006 24.6777 159.132 24.6937C158.803 24.7096 158.473 24.7256 158.123 24.7256C156.707 24.7575 157.813 24.7096 159.132 24.6937C161.015 24.598 162.45 24.3587 162.838 24.1354C163.304 23.8802 162.237 20.2911 162.237 20.2911C162.237 20.2911 161.383 19.6052 159.501 19.5574C157.599 19.5095 157.502 19.4617 159.385 19.4298C161.286 19.3978 161.267 19.0629 161.267 18.8077C161.228 17.388 159.482 16.064 158.376 16.0002C157.27 15.9364 126.786 17.7389 117.026 18.0898C105.016 18.0579 33.6489 19.5893 23.5396 19.7647C13.4497 19.9561 8.57942 22.7955 8.57942 22.7955L9.89887 23.274C9.91827 23.274 11.8004 23.4176 14.3229 23.1943Z" fill="#71390B"/>
<path d="M154.922 16.2557C153.758 16.3354 152.574 16.3833 151.41 16.463C148.033 16.6704 124.749 17.0851 121.392 17.2606C119.277 17.3722 117.162 17.452 115.047 17.5318C103.036 17.5158 31.6504 19.0312 21.5605 19.2226C11.4706 19.414 8.96749 20.5466 8.96749 20.5466L8.56001 22.8914C8.56001 22.8914 9.82125 22.8754 12.3437 22.6521C14.8662 22.4448 18.8245 22.9552 18.8245 22.9552C18.8245 22.9552 17.2529 23.4018 14.0901 23.3699C10.9273 23.354 9.20034 23.2902 8.09433 23.7368C7.04653 25.9222 7.22116 31.4413 7.55102 32.3505C11.9751 31.856 17.3499 32.0794 20.5127 32.2867C21.7545 32.3665 23.2098 32.3186 24.4128 32.2708C26.295 32.207 27.5756 32.1591 26.5278 32.5898C24.8203 33.2917 9.64662 32.9886 8.69584 33.0045C7.74506 33.0205 7.16295 34.7911 7.18236 35.1261C7.20176 35.461 7.84208 36.0353 9.25855 35.8439C10.675 35.6525 14.4587 35.4132 19.1932 35.4132C61.2409 36.8967 163.304 31.8241 163.304 31.8241C163.304 31.8241 163.188 31.202 163.013 30.3247C162.994 30.229 162.974 30.1333 162.955 30.0216C162.858 29.5591 162.761 29.0486 162.625 28.5222C162.47 27.8044 162.295 27.0547 162.121 26.4326C161.965 25.8424 161.791 25.332 161.655 25.0289C161.558 24.8056 161.461 24.6779 161.364 24.6779C160.723 24.6939 154.883 24.7099 153.932 24.646C152.981 24.5822 153.758 24.2313 156.125 24.1835C158.492 24.1356 160.374 23.8485 160.84 23.5933C161.112 23.4497 161.034 22.2693 160.918 21.2963C160.84 20.5466 160.723 19.9883 160.723 19.9883C160.723 19.9883 160.083 19.43 158.182 19.3821C156.28 19.3343 155.484 18.9355 157.367 18.9036C159.268 18.8717 159.21 18.76 159.404 18.5367C159.559 18.3612 159.423 18.0901 159.385 17.8667C159.385 17.8667 158.822 16.0164 158.22 16.0323C157.677 16.0164 154.922 16.2557 154.922 16.2557Z" fill="#DC8E36"/>
<path d="M160.976 21.6948L161.267 21.647C161.267 21.647 161.17 21.647 160.976 21.6629C160.976 21.6789 160.976 21.6948 160.976 21.6948Z" fill="#6C3203"/>
<path d="M162.8 29.2238C162.877 29.2238 162.916 29.2238 162.916 29.2238C162.916 29.2238 162.877 29.2238 162.8 29.2238C162.8 29.2238 162.8 29.2409 162.8 29.2238Z" fill="#6C3203"/>
<path d="M7.9585 24.2311C7.9585 24.2311 21.6769 23.8163 24.1994 23.5133C26.5472 23.2261 85.0298 22.0776 92.8883 21.9341C93.4122 21.9181 93.8391 21.9181 94.1689 21.9181C95.7794 21.9341 98.3601 21.9181 101.212 21.8703C107.557 21.7586 115.319 21.5034 117.065 21.4236C119.491 21.296 155.911 19.5095 159.094 19.4297C159.074 19.4297 159.055 19.4297 159.035 19.4297C158.453 19.4138 157.231 19.4138 155.601 19.4457C152.904 19.4935 149.12 19.6371 145.298 20.0199C140.214 20.5304 114.252 21.2163 108.586 21.3279C106.374 21.3598 104.22 21.3598 102.221 21.2801C101.581 21.2482 100.63 21.2482 99.4273 21.2801C87.4747 21.5034 21.1724 23.4016 17.5827 23.4654C13.6244 23.5452 7.9585 24.2311 7.9585 24.2311Z" fill="#CA7021"/>
<path d="M159.171 17.1647C159.171 17.1647 159.152 17.1647 159.132 17.1647C159.152 17.1647 159.171 17.1647 159.171 17.1647ZM27.595 20.9451C27.595 20.9451 38.6357 20.6101 40.6731 20.3709C42.5747 20.1476 95.469 19.334 101.775 19.2224C102.183 19.2224 102.532 19.2064 102.784 19.2224C104.084 19.2383 106.16 19.2224 108.45 19.1745C113.553 19.0788 119.801 18.8874 121.198 18.8236C123.158 18.7279 156.591 17.2285 158.958 17.1806C159.016 17.1806 159.074 17.1806 159.113 17.1806C158.919 17.1806 157.774 17.1647 156.086 17.1966C153.913 17.2444 150.866 17.3561 147.801 17.6591C143.726 18.0579 118.928 18.6481 114.388 18.7438C112.602 18.7757 110.876 18.7757 109.265 18.696C108.741 18.68 107.984 18.68 107.014 18.696C97.4094 18.8714 38.2088 20.2911 35.3371 20.3549C32.1549 20.4028 27.595 20.9451 27.595 20.9451Z" fill="#CA7021"/>
<path d="M7.31821 29.3515C7.72568 29.3355 16.1663 28.4103 18.9798 28.2189C21.968 27.9956 77.8699 25.9219 81.6536 25.6827C85.4373 25.4434 109.692 23.7525 113.01 23.609C115.591 23.4973 151.099 22.301 158.007 21.8703C150.304 22.1893 108.081 23.3378 99.9125 23.7685C89.9778 24.2949 41.9537 25.6348 36.2879 26.0814C30.6026 26.4962 7.95853 29.2557 7.31821 29.3515Z" fill="#CA7021"/>
<path d="M114.271 34.3602C111.729 33.8178 54.9736 33.0681 49.4435 33.1798C43.9135 33.2914 17.738 34.1847 14.7498 34.2326C11.7422 34.2964 9.23917 34.8387 9.3944 34.9185C9.86008 34.6632 37.3163 33.9933 49.3077 33.6902C49.8316 33.6743 80.2759 34.1528 80.8581 34.1528C93.16 33.8976 114.271 34.3602 114.271 34.3602Z" fill="#CA7021"/>
<path d="M7.57044 32.3503C7.57044 32.3503 8.52122 32.1589 9.29737 31.9834C9.29737 31.9834 34.3281 29.3514 40.7895 29.1441C47.2509 28.9367 87.2224 27.9956 89.5897 27.7882C89.7449 27.7723 89.8031 27.7723 89.7643 27.7723C89.2016 27.7882 40.479 28.6496 36.3461 28.7293C32.0967 28.8091 9.58842 30.7552 7.3764 31.2975C7.43461 31.792 7.51223 32.1589 7.57044 32.3503Z" fill="#CA7021"/>
<path d="M147.49 29.5429C154.379 29.4153 161.752 29.2558 162.8 29.2239C160.937 29.2239 119.238 29.495 116.968 29.5429C114.601 29.5908 92.1898 29.7503 92.1898 29.7503C92.1898 29.7503 106.005 26.895 108.353 26.4483C110.72 25.9858 147.296 24.0875 149.508 23.8802C151.72 23.6728 160.995 22.2531 160.995 22.2531C160.995 22.2531 153.273 22.8912 148.713 23.4016C144.153 23.8961 114.62 24.5023 106.781 26.225C98.9423 27.9637 88.4255 29.9895 88.4255 29.9895C88.4255 29.9895 110.837 29.9895 117.958 29.9417C120.286 29.9257 143.765 29.6227 147.49 29.5429Z" fill="#CA7021"/>
<path d="M151.701 25.0606C153.234 24.8213 153.932 24.6299 153.932 24.6299C153.932 24.6299 153.04 24.8053 151.701 25.0606ZM161.907 27.2459C161.907 27.2459 151.798 26.9269 148.48 26.9907C145.162 27.0545 116.755 27.4533 119.433 27.3257C121.373 27.2299 148.111 25.7305 151.701 25.0606C151.06 25.1563 150.304 25.2679 149.392 25.3796C146.248 25.7784 109.343 27.9159 113.146 27.9318C116.891 27.9478 161.597 27.2459 161.907 27.2459Z" fill="#CA7021"/>
<path opacity="0.4" d="M151.953 25.7624C153.582 25.7624 154.902 24.7483 154.902 23.4973C154.902 22.2463 153.582 21.2322 151.953 21.2322C150.324 21.2322 149.004 22.2463 149.004 23.4973C149.004 24.7483 150.324 25.7624 151.953 25.7624Z" fill="#442309"/>
<path opacity="0.4" d="M281.181 20.2273C281.181 21.4715 279.862 22.4924 278.232 22.4924C276.602 22.4924 275.283 21.4715 275.283 20.2273C275.283 18.9831 276.602 17.9622 278.232 17.9622C279.862 17.9622 281.181 18.9831 281.181 20.2273Z" fill="#442309"/>
<path d="M280.425 21.0089C280.056 22.0457 278.737 22.6359 277.475 22.301C276.214 21.9819 275.496 20.8653 275.865 19.8285C276.233 18.7917 277.553 18.2015 278.814 18.5364C280.075 18.8714 280.793 19.9721 280.425 21.0089Z" fill="#1B0600"/>
<path d="M280.037 20.977C279.668 22.0139 278.348 22.6041 277.087 22.2691C275.826 21.95 275.108 20.8335 275.477 19.7966C275.845 18.7598 277.165 18.1696 278.426 18.5046C279.687 18.8236 280.405 19.9242 280.037 20.977Z" fill="#2B1501"/>
<path d="M279.648 20.8654C279.338 21.7267 278.251 22.2053 277.204 21.9341C276.156 21.6629 275.554 20.7537 275.865 19.8923C276.175 19.031 277.262 18.5524 278.31 18.8076C279.357 19.0948 279.959 20.004 279.648 20.8654Z" fill="#442309"/>
<path opacity="0.47" d="M276.408 21.9979L279.125 18.8395L278.931 18.7279L276.214 21.8543L276.408 21.9979Z" fill="#442309"/>
<path d="M174.43 212.342C172.614 213.202 156.958 212.622 155.965 212.627C154.971 212.632 152.251 214.388 152.236 214.809C152.222 215.229 154.846 218.238 156.31 218.017C157.774 217.795 161.706 217.539 166.6 217.604C209.957 220.045 291.911 214.516 291.911 214.516L289.927 212.011L182.491 202.589L173.798 211.885C174.77 211.883 175.184 211.979 174.43 212.342Z" fill="url(#paint3_linear_1_724)"/>
<path d="M154.847 211.792C159.43 211.217 164.975 211.592 168.227 211.868C169.505 211.974 171.002 211.942 172.255 211.907C172.85 211.901 173.376 211.871 173.798 211.885L182.491 202.589L163.517 200.468C163.1 200.485 162.637 200.491 162.147 200.469C158.885 200.388 154.111 210.236 152.946 210.776C152.75 211.428 153.67 211.255 154.847 211.792Z" fill="#71390B"/>
<path d="M285.048 202.936C285.403 202.942 285.752 202.917 286.082 202.91C284.715 202.927 283.571 202.949 285.048 202.936Z" fill="#71390B"/>
<path d="M160.374 199.551C162.982 199.306 167.061 200.016 167.061 200.016C167.061 200.016 165.869 200.399 163.52 200.484L289.948 212.009L291.933 214.513C291.933 214.513 290.934 203.866 290.405 203.623C289.421 203.175 289.353 203.038 288.386 202.943C288.004 202.908 286.986 202.899 286.082 202.91C285.752 202.917 285.403 202.942 285.048 202.936C283.57 202.949 284.737 202.924 286.082 202.91C288.031 202.808 289.53 202.534 289.946 202.259C290.443 201.942 289.556 197.374 289.556 197.374C289.556 197.374 288.716 196.49 286.759 196.416C284.799 196.325 284.701 196.273 286.666 196.266C288.629 196.243 288.644 195.822 288.653 195.498C288.712 193.687 287.001 191.987 285.859 191.897C284.716 191.807 253.117 193.679 242.986 193.992C230.579 193.801 180.566 195.242 170.134 195.349C159.678 195.443 154.49 199.006 154.49 199.006L155.813 199.623C155.807 199.592 157.762 199.779 160.374 199.551Z" fill="#71390B"/>
<path d="M282.256 192.147C281.057 192.24 279.826 192.273 278.603 192.354C275.109 192.59 251.018 192.799 247.535 192.97C245.345 193.084 243.15 193.167 240.953 193.234C228.543 193.027 178.533 194.484 168.077 194.578C157.62 194.672 154.972 196.081 154.972 196.081L154.408 199.049C154.408 199.049 155.71 199.039 158.322 198.811C160.952 198.564 165.009 199.276 165.009 199.276C165.009 199.276 163.36 199.826 160.098 199.745C156.836 199.664 155.054 199.584 153.889 200.125C152.672 202.896 152.504 209.894 152.794 211.052C157.378 210.477 162.923 210.852 166.178 211.144C167.456 211.25 168.952 211.218 170.206 211.183C172.141 211.131 173.481 211.085 172.356 211.605C170.543 212.48 154.884 211.885 153.912 211.887C152.919 211.892 152.228 214.133 152.213 214.554C152.198 214.974 152.837 215.721 154.32 215.481C155.805 215.257 159.716 215.003 164.61 215.068C207.966 217.509 289.921 211.98 289.921 211.98C289.921 211.98 289.848 211.183 289.719 210.07C289.697 209.944 289.675 209.817 289.675 209.688C289.594 209.102 289.522 208.433 289.428 207.768C289.311 206.847 289.17 205.913 289.029 205.107C288.899 204.365 288.764 203.721 288.628 203.318C288.535 203.039 288.439 202.873 288.35 202.867C287.69 202.881 281.648 202.823 280.681 202.728C279.714 202.633 280.522 202.199 282.972 202.182C285.422 202.166 287.394 201.82 287.891 201.503C288.169 201.325 288.172 199.826 288.111 198.593C288.056 197.648 287.997 196.93 287.997 196.93C287.997 196.93 287.364 196.215 285.404 196.125C283.444 196.035 282.646 195.517 284.609 195.494C286.571 195.471 286.525 195.332 286.74 195.048C286.902 194.836 286.795 194.478 286.767 194.191C286.767 194.191 286.288 191.83 285.693 191.836C285.127 191.887 282.256 192.147 282.256 192.147Z" fill="#DC8E36"/>
<path d="M286.639 196.237C286.596 196.242 286.463 196.241 286.285 196.23C286.306 196.228 286.331 196.241 286.331 196.241C286.374 196.236 286.398 196.249 286.442 196.244C286.507 196.236 286.574 196.244 286.639 196.237Z" fill="#6C3203"/>
<path d="M288.187 199.148L288.487 199.096C288.487 199.096 288.379 199.109 288.181 199.116C288.181 199.116 288.184 199.132 288.187 199.148Z" fill="#6C3203"/>
<path d="M289.572 208.717C289.662 208.724 289.705 208.718 289.705 208.718C289.705 208.718 289.662 208.724 289.572 208.717Z" fill="#6C3203"/>
<path d="M153.738 200.771C153.738 200.771 167.951 200.426 170.564 200.085C173.026 199.761 209.679 198.612 217.797 198.537C218.325 198.523 218.769 198.535 219.102 198.544C220.767 198.589 223.441 198.594 226.375 198.569C232.948 198.5 240.978 198.307 242.773 198.207C245.292 198.086 283.05 196.307 286.331 196.241C286.331 196.241 286.288 196.246 286.285 196.23C285.686 196.22 284.422 196.193 282.725 196.216C279.945 196.239 276.013 196.367 272.046 196.804C266.756 197.382 239.873 197.922 234.026 197.97C231.73 197.984 229.516 197.956 227.437 197.815C226.765 197.766 225.791 197.752 224.556 197.769C212.205 197.894 167.413 199.878 163.685 199.916C159.631 199.977 153.738 200.771 153.738 200.771Z" fill="#CA7021"/>
<path d="M286.578 193.359L286.557 193.362C286.578 193.359 286.578 193.359 286.578 193.359ZM174.243 196.861C174.243 196.861 185.662 196.589 187.778 196.306C189.767 196.054 220.626 195.253 227.154 195.189C227.574 195.188 227.95 195.192 228.216 195.193C229.569 195.226 231.713 195.23 234.073 195.208C239.346 195.164 245.812 194.995 247.258 194.92C249.296 194.824 283.928 193.367 286.4 193.348C286.464 193.34 286.511 193.351 286.575 193.343C286.375 193.335 285.2 193.313 283.435 193.328C281.186 193.353 278.022 193.453 274.834 193.799C270.586 194.269 244.921 194.697 240.222 194.738C238.37 194.764 236.595 194.716 234.921 194.624C234.385 194.591 233.611 194.586 232.618 194.591C222.692 194.686 185.279 196.167 182.277 196.184C178.972 196.237 174.243 196.861 174.243 196.861Z" fill="#CA7021"/>
<path d="M152.728 207.257C153.166 207.237 161.933 206.199 164.853 205.966C167.971 205.726 202.005 203.372 205.937 203.116C209.869 202.86 235.046 201.024 238.469 200.892C241.124 200.787 277.905 199.736 285.074 199.29C277.103 199.573 233.382 200.479 224.93 200.916C214.637 201.442 188.767 202.974 182.886 203.46C177.003 203.931 153.415 207.143 152.728 207.257C152.75 207.254 152.75 207.254 152.728 207.257Z" fill="#CA7021"/>
<path d="M239.113 214.562C236.515 213.855 201.741 212.606 196.027 212.654C190.313 212.702 163.208 213.493 160.101 213.539C156.991 213.569 154.367 214.234 154.517 214.329C155.011 213.997 183.429 213.517 195.85 213.287C196.381 213.289 203.986 213.822 204.56 213.819C217.333 213.709 239.113 214.562 239.113 214.562Z" fill="#CA7021"/>
<path d="M152.819 211.065C152.819 211.065 153.799 210.853 154.621 210.626C154.621 210.626 180.654 207.625 187.339 207.445C194.027 207.282 211.548 206.142 214.005 205.916C214.178 205.895 214.221 205.89 214.178 205.895C213.583 205.902 187.031 206.821 182.776 206.874C178.386 206.91 154.995 209.099 152.677 209.744C152.717 210.352 152.756 210.831 152.819 211.065Z" fill="#CA7021"/>
<path d="M273.746 208.931C280.87 208.861 288.495 208.748 289.575 208.733C287.65 208.719 244.547 208.488 242.187 208.51C239.737 208.526 216.566 208.433 216.566 208.433C216.566 208.433 231.015 205.014 233.482 204.464C235.949 203.914 273.882 202.001 276.16 201.764C278.461 201.524 288.132 199.847 288.132 199.847C288.132 199.847 280.125 200.553 275.365 201.133C270.627 201.71 240.068 202.073 231.859 204.157C223.651 206.24 212.634 208.689 212.634 208.689C212.634 208.689 235.798 208.992 243.161 209.023C245.613 209.023 269.907 208.967 273.746 208.931Z" fill="#CA7021"/>
<path d="M278.369 203.275C279.976 202.988 280.711 202.772 280.711 202.772C280.711 202.772 279.797 202.977 278.369 203.275ZM288.797 206.182C288.797 206.182 278.363 205.645 274.945 205.679C271.526 205.713 242.119 205.843 244.901 205.707C246.917 205.613 274.641 204.071 278.39 203.273C277.728 203.399 276.932 203.526 275.983 203.654C272.703 204.107 234.449 206.332 238.35 206.402C242.232 206.49 288.467 206.189 288.797 206.182Z" fill="#CA7021"/>
<path opacity="0.36" d="M285.09 209.747C281.767 210.705 198.251 214.131 187.32 213.91C176.386 213.674 169.341 213.815 175.716 212.238C182.091 210.662 163.41 210.472 156.349 210.277C154.617 210.224 153.471 210.118 152.716 209.966C152.736 210.463 152.781 210.844 152.817 211.049C157.4 210.475 162.945 210.849 166.2 211.141C167.478 211.247 168.975 211.215 170.228 211.18C172.163 211.128 173.503 211.082 172.379 211.602C170.565 212.477 154.907 211.882 153.935 211.884C152.941 211.889 152.25 214.13 152.236 214.551C152.221 214.972 152.859 215.718 154.342 215.478C155.827 215.254 159.738 215 164.632 215.065C207.989 217.506 289.943 211.977 289.943 211.977C289.943 211.977 289.87 211.18 289.742 210.067C289.72 209.941 289.698 209.814 289.697 209.685C289.617 209.099 289.544 208.43 289.45 207.765C289.436 207.686 289.425 207.623 289.414 207.56C288.709 208.964 287.467 209.063 285.09 209.747Z" fill="#DC8E36"/>
<path opacity="0.42" d="M157.691 201.013C164.483 200.434 188.004 199.744 180.697 198.772C173.369 197.803 200.095 196.492 216.298 196.281C232.501 196.071 272.492 195.945 265.984 196.635C259.477 197.325 263.902 197.236 272.348 197.397C280.794 197.557 284.654 198.277 287.146 198.884C287.539 198.982 287.883 199.055 288.203 199.113C288.194 198.937 288.207 198.758 288.179 198.6C288.125 197.656 288.066 196.938 288.066 196.938C288.066 196.938 287.432 196.223 285.472 196.133C283.512 196.043 282.715 195.525 284.677 195.502C286.64 195.479 286.593 195.34 286.809 195.056C286.97 194.844 286.864 194.486 286.836 194.199C286.836 194.199 286.357 191.838 285.761 191.844C285.144 191.853 282.295 192.11 282.295 192.11C281.096 192.203 279.864 192.236 278.641 192.317C275.147 192.553 251.056 192.762 247.573 192.933C245.384 193.047 243.189 193.13 240.991 193.197C228.582 192.99 178.571 194.447 168.115 194.541C157.659 194.635 155.011 196.044 155.011 196.044L154.447 199.012C154.447 199.012 155.749 199.002 158.36 198.774C160.99 198.527 165.048 199.239 165.048 199.239C165.048 199.239 163.398 199.789 160.136 199.708C156.874 199.627 155.093 199.547 153.928 200.088C153.613 200.818 153.368 201.814 153.187 202.932C154.021 202.011 155.404 201.203 157.691 201.013Z" fill="#DC8E36"/>
<path d="M282.691 202.215C281.844 201.413 280.648 200.894 278.789 201.001C275.049 201.219 271.547 202.294 267.979 203.119C267.087 203.322 265.07 204.044 264.106 203.836C263.875 203.783 263.493 203.747 263.293 203.61C262.327 202.886 262.031 203.469 261.182 203.795C260.003 204.257 258.096 203.709 256.711 204.131C255.116 204.61 253.442 205.147 252.053 205.924C249.314 207.44 251.511 211.29 252.92 214.04C268.679 213.318 281.38 212.54 286.931 212.189C286.308 209.764 285.64 207.33 284.528 205.012C284.151 204.25 283.775 203.489 283.286 202.838C282.111 202.816 281.091 202.792 280.752 202.751C279.788 202.672 280.515 202.28 282.691 202.215Z" fill="#DC8E36"/>
<path d="M291.492 208.208C289.776 208.832 276.078 206.838 275.203 206.75C274.328 206.662 271.694 208.028 271.623 208.415C271.552 208.802 273.45 211.822 274.768 211.754C276.087 211.686 279.582 211.816 283.881 212.332C321.7 218.625 394.579 221.163 394.579 221.163L393.176 218.668L299.923 199.963L290.998 207.728C291.854 207.816 292.205 207.944 291.492 208.208Z" fill="url(#paint4_linear_1_724)"/>
<path d="M274.334 205.876C278.446 205.773 283.274 206.635 286.098 207.193C287.208 207.41 288.53 207.52 289.638 207.604C290.162 207.654 290.629 207.675 290.998 207.728L299.923 199.963L283.516 196.239C283.147 196.216 282.738 196.178 282.31 196.112C279.451 195.733 273.899 204.371 272.8 204.762C272.539 205.345 273.372 205.27 274.334 205.876Z" fill="#71390B"/>
<path d="M390.127 209.842C390.438 209.881 390.749 209.891 391.04 209.915C389.835 209.803 388.824 209.717 390.127 209.842Z" fill="#71390B"/>
<path d="M280.875 195.1C283.205 195.118 286.697 196.152 286.697 196.152C286.697 196.152 285.595 196.394 283.516 196.254L393.195 218.668L394.599 221.163C394.599 221.163 395.178 211.25 394.747 210.976C393.942 210.471 393.901 210.338 393.063 210.161C392.732 210.092 391.837 209.99 391.04 209.915C390.749 209.891 390.438 209.881 390.127 209.842C388.824 209.717 389.855 209.803 391.04 209.915C392.769 210.003 394.126 209.89 394.529 209.675C395.01 209.429 394.856 205.133 394.856 205.133C394.856 205.133 394.238 204.239 392.526 203.988C390.813 203.722 390.735 203.664 392.465 203.841C394.195 204.003 394.266 203.616 394.319 203.319C394.619 201.653 393.346 199.926 392.353 199.736C391.36 199.547 363.295 198.328 354.337 197.673C343.446 196.34 299.236 193.008 290.041 192.134C280.826 191.246 275.772 194.049 275.772 194.049L276.852 194.742C276.851 194.712 278.546 195.067 280.875 195.1Z" fill="#71390B"/>
<path d="M389.149 199.631C388.081 199.605 386.993 199.521 385.905 199.481C382.798 199.374 361.57 197.321 358.481 197.154C356.538 197.055 354.595 196.927 352.652 196.784C341.76 195.436 297.551 192.119 288.336 191.231C279.122 190.343 276.598 191.396 276.598 191.396L275.695 194.081C275.695 194.081 276.842 194.194 279.171 194.226C281.52 194.243 284.993 195.279 284.993 195.279C284.993 195.279 283.466 195.632 280.606 195.253C277.747 194.874 276.19 194.635 275.091 195.025C273.64 197.468 272.533 203.907 272.63 205.002C276.742 204.899 281.57 205.762 284.395 206.334C285.505 206.551 286.826 206.661 287.934 206.745C289.644 206.878 290.829 206.96 289.769 207.335C288.053 207.973 274.355 205.965 273.499 205.876C272.624 205.788 271.709 207.791 271.638 208.178C271.568 208.564 272.027 209.312 273.365 209.229C274.703 209.161 278.179 209.291 282.477 209.808C320.297 216.1 393.176 218.639 393.176 218.639C393.176 218.639 393.22 217.897 393.26 216.858C393.258 216.74 393.256 216.621 393.273 216.502C393.283 215.953 393.311 215.33 393.319 214.708C393.342 213.847 393.346 212.973 393.333 212.217C393.32 211.52 393.29 210.913 393.225 210.529C393.181 210.262 393.12 210.1 393.042 210.087C392.459 210.038 387.15 209.421 386.312 209.244C385.475 209.066 386.245 208.741 388.403 208.954C390.561 209.168 392.344 209.032 392.825 208.786C393.094 208.648 393.302 207.266 393.418 206.122C393.499 205.246 393.546 204.578 393.546 204.578C393.546 204.578 393.086 203.86 391.374 203.594C389.661 203.328 389.03 202.776 390.761 202.938C392.491 203.099 392.469 202.966 392.697 202.725C392.869 202.544 392.824 202.204 392.839 201.937C392.839 201.937 392.741 199.715 392.216 199.665C391.711 199.659 389.149 199.631 389.149 199.631Z" fill="#DC8E36"/>
<path d="M392.445 203.812C392.406 203.812 392.29 203.8 392.134 203.773C392.153 203.772 392.173 203.787 392.173 203.787C392.212 203.786 392.231 203.801 392.27 203.8C392.328 203.799 392.387 203.813 392.445 203.812Z" fill="#6C3203"/>
<path d="M393.408 206.641L393.679 206.621C393.679 206.621 393.582 206.623 393.407 206.611C393.407 206.611 393.407 206.626 393.408 206.641Z" fill="#6C3203"/>
<path d="M393.315 215.597C393.393 215.611 393.431 215.61 393.431 215.61C393.431 215.61 393.393 215.611 393.315 215.597Z" fill="#6C3203"/>
<path d="M274.868 195.607C274.868 195.607 287.423 196.614 289.77 196.542C291.981 196.473 324.394 198.83 331.548 199.517C332.014 199.554 332.403 199.606 332.695 199.645C334.154 199.841 336.507 200.096 339.092 200.346C344.885 200.895 351.979 201.465 353.572 201.541C355.806 201.664 389.277 203.542 392.173 203.787C392.173 203.787 392.134 203.788 392.134 203.773C391.609 203.708 390.5 203.565 389.003 203.428C386.554 203.19 383.075 202.941 379.525 202.975C374.79 203.015 351.059 201.007 345.907 200.506C343.885 200.305 341.94 200.073 340.13 199.75C339.545 199.641 338.69 199.538 337.601 199.439C326.715 198.403 287.025 196.057 283.74 195.745C280.163 195.424 274.868 195.607 274.868 195.607Z" fill="#CA7021"/>
<path d="M392.786 201.152L392.766 201.152C392.786 201.152 392.786 201.152 392.786 201.152ZM293.449 193.912C293.449 193.912 303.536 194.725 305.437 194.661C307.221 194.615 334.487 196.752 340.241 197.302C340.611 197.339 340.941 197.378 341.174 197.403C342.361 197.56 344.247 197.764 346.327 197.964C350.974 198.415 356.687 198.861 357.969 198.927C359.776 199.028 390.453 200.912 392.63 201.125C392.688 201.124 392.727 201.138 392.785 201.137C392.61 201.111 391.579 200.981 390.024 200.831C388.041 200.644 385.243 200.442 382.391 200.463C378.588 200.501 355.943 198.504 351.802 198.103C350.17 197.954 348.613 197.745 347.154 197.504C346.686 197.424 346.006 197.347 345.131 197.259C336.383 196.422 303.257 194.3 300.612 194.036C297.697 193.777 293.449 193.912 293.449 193.912Z" fill="#CA7021"/>
<path d="M273.091 201.495C273.48 201.518 281.337 201.377 283.938 201.435C286.715 201.504 316.988 202.505 320.483 202.635C323.979 202.766 346.386 203.418 349.417 203.616C351.768 203.767 384.279 206.226 390.649 206.483C383.596 206.001 344.996 202.761 337.498 202.376C328.369 201.902 305.393 200.903 300.151 200.804C294.909 200.69 273.711 201.454 273.091 201.495C273.11 201.495 273.11 201.495 273.091 201.495Z" fill="#CA7021"/>
<path d="M348.11 216.285C345.92 215.39 315.49 210.997 310.455 210.509C305.42 210.02 281.459 208.224 278.718 207.977C275.977 207.714 273.577 208.083 273.696 208.185C274.176 207.924 299.25 210.131 310.213 211.076C310.679 211.127 317.299 212.329 317.804 212.379C329.06 213.468 348.11 216.285 348.11 216.285Z" fill="#CA7021"/>
<path d="M272.649 205.016C272.649 205.016 273.54 204.912 274.295 204.779C274.295 204.779 297.615 204.437 303.523 204.895C309.431 205.368 325.006 205.95 327.199 205.97C327.354 205.967 327.393 205.966 327.354 205.967C326.83 205.917 303.338 204.291 299.586 203.942C295.717 203.567 274.833 203.406 272.705 203.785C272.657 204.349 272.626 204.794 272.649 205.016Z" fill="#CA7021"/>
<path d="M379.358 214.319C385.637 214.919 392.363 215.525 393.316 215.612C391.624 215.42 353.724 211.189 351.644 210.989C349.486 210.775 329.108 208.53 329.108 208.53C329.108 208.53 342.292 206.723 344.538 206.446C346.784 206.169 380.428 207.94 382.466 207.933C384.523 207.926 393.264 207.281 393.264 207.281C393.264 207.281 386.12 207.186 381.853 207.277C377.604 207.368 350.662 204.854 343.152 206.011C335.643 207.168 325.612 208.4 325.612 208.4C325.612 208.4 345.955 210.839 352.431 211.553C354.589 211.781 375.976 213.994 379.358 214.319Z" fill="#CA7021"/>
<path d="M384.202 209.533C385.656 209.418 386.333 209.287 386.333 209.287C386.333 209.287 385.5 209.391 384.202 209.533ZM392.981 213.186C392.981 213.186 383.873 211.718 380.859 211.431C377.846 211.144 351.95 208.523 354.417 208.656C356.204 208.758 380.813 209.92 384.222 209.533C383.621 209.588 382.904 209.63 382.05 209.66C379.103 209.772 345.133 208.259 348.556 208.687C351.961 209.13 392.69 213.162 392.981 213.186Z" fill="#CA7021"/>
<path opacity="0.36" d="M389.23 216.129C386.174 216.703 312.21 212.078 302.621 210.856C293.031 209.619 286.811 209.092 292.637 208.232C298.464 207.372 282.05 205.456 275.864 204.618C274.346 204.408 273.353 204.203 272.709 203.992C272.659 204.453 272.646 204.809 272.649 205.002C276.761 204.898 281.59 205.761 284.414 206.333C285.524 206.551 286.846 206.661 287.953 206.745C289.663 206.877 290.849 206.96 289.788 207.334C288.072 207.973 274.374 205.964 273.519 205.876C272.644 205.787 271.729 207.79 271.658 208.177C271.587 208.564 272.047 209.312 273.384 209.228C274.722 209.16 278.198 209.291 282.496 209.807C320.316 216.1 393.195 218.638 393.195 218.638C393.195 218.638 393.24 217.896 393.28 216.858C393.278 216.739 393.275 216.621 393.293 216.502C393.302 215.953 393.33 215.33 393.338 214.707C393.337 214.633 393.336 214.574 393.335 214.514C392.522 215.744 391.416 215.72 389.23 216.129Z" fill="#DC8E36"/>
<path opacity="0.42" d="M278.314 196.198C284.371 196.298 305.164 197.854 298.867 196.276C292.551 194.699 316.25 195.98 330.538 197.297C344.825 198.613 380.035 202.225 374.214 202.254C368.392 202.284 372.299 202.615 379.71 203.55C387.12 204.485 390.418 205.508 392.528 206.301C392.86 206.428 393.153 206.527 393.427 206.611C393.443 206.448 393.479 206.284 393.476 206.136C393.558 205.26 393.604 204.592 393.604 204.592C393.604 204.592 393.145 203.873 391.432 203.607C389.72 203.341 389.089 202.789 390.819 202.951C392.549 203.113 392.527 202.98 392.756 202.739C392.927 202.558 392.882 202.218 392.897 201.95C392.897 201.95 392.799 199.728 392.274 199.679C391.73 199.629 389.187 199.6 389.187 199.6C388.119 199.575 387.031 199.49 385.944 199.451C382.837 199.343 361.608 197.291 358.519 197.123C356.577 197.025 354.634 196.896 352.69 196.753C341.799 195.406 297.589 192.088 288.374 191.2C279.16 190.312 276.636 191.365 276.636 191.365L275.733 194.05C275.733 194.05 276.88 194.163 279.21 194.196C281.558 194.213 285.031 195.248 285.031 195.248C285.031 195.248 283.504 195.601 280.645 195.223C277.785 194.844 276.228 194.605 275.129 194.995C274.752 195.639 274.4 196.535 274.088 197.549C274.947 196.777 276.275 196.16 278.314 196.198Z" fill="#DC8E36"/>
<path d="M388.151 208.959C387.515 208.14 386.535 207.549 384.884 207.475C381.562 207.327 378.333 207.992 375.081 208.421C374.267 208.524 372.394 209.003 371.573 208.721C371.378 208.65 371.047 208.582 370.889 208.436C370.138 207.679 369.798 208.189 369.006 208.411C367.906 208.727 366.302 208.044 365.026 208.304C363.556 208.597 362.01 208.936 360.681 209.523C358.062 210.667 359.468 214.422 360.331 217.09C374.299 217.893 385.583 218.359 390.515 218.553C390.3 216.259 390.045 213.95 389.384 211.709C389.157 210.972 388.931 210.234 388.589 209.588C387.558 209.458 386.664 209.341 386.371 209.272C385.534 209.109 386.227 208.815 388.151 208.959Z" fill="#DC8E36"/>
<path d="M32.3445 213.132C30.637 213.834 15.4633 213.531 14.5125 213.547C13.5618 213.563 11.0005 214.966 11.0199 215.301C11.0199 215.636 13.6976 217.965 15.1141 217.774C16.5305 217.582 20.3142 217.343 25.0487 217.343C67.0965 218.811 169.16 213.754 169.16 213.754L167.122 211.792L39.6791 205.38L31.7042 212.797C32.655 212.765 33.0624 212.845 32.3445 213.132Z" fill="url(#paint5_linear_1_724)"/>
<path d="M13.3871 212.909C17.7918 212.414 23.1666 212.637 26.3294 212.829C27.5712 212.909 29.0265 212.861 30.2295 212.829C30.7922 212.813 31.2967 212.797 31.7236 212.797L39.6985 205.38L21.265 203.912C20.8575 203.928 20.4113 203.928 19.9262 203.928C16.7634 203.896 12.611 211.696 11.5244 212.143C11.3497 212.637 12.2229 212.494 13.3871 212.909Z" fill="#71390B"/>
<path d="M161.942 204.726C162.291 204.71 162.621 204.71 162.95 204.694C161.631 204.71 160.525 204.742 161.942 204.726Z" fill="#71390B"/>
<path d="M18.141 203.194C20.6635 202.987 24.6218 203.497 24.6218 203.497C24.6218 203.497 23.4964 203.816 21.2262 203.896L167.122 211.808L169.16 213.77C169.16 213.77 167.685 205.396 167.18 205.204C166.21 204.853 166.133 204.757 165.182 204.694C164.794 204.662 163.824 204.678 162.95 204.694C162.621 204.71 162.291 204.726 161.941 204.726C160.525 204.757 161.631 204.71 162.95 204.694C164.833 204.598 166.269 204.359 166.657 204.135C167.122 203.88 166.055 200.291 166.055 200.291C166.055 200.291 165.201 199.605 163.319 199.557C161.418 199.509 161.321 199.462 163.203 199.43C165.104 199.398 165.085 199.063 165.085 198.808C165.046 197.388 163.3 196.064 162.194 196C161.088 195.936 130.605 197.739 120.845 198.09C108.834 198.058 37.467 199.589 27.3577 199.765C17.2678 199.956 12.3975 202.795 12.3975 202.795L13.717 203.274C13.7364 203.274 15.6185 203.418 18.141 203.194Z" fill="#71390B"/>
<path d="M158.74 196.256C157.576 196.335 156.392 196.383 155.228 196.463C151.852 196.67 128.567 197.085 125.21 197.261C123.095 197.372 120.98 197.452 118.865 197.532C106.855 197.516 35.4685 199.031 25.3786 199.223C15.2887 199.414 12.7856 200.547 12.7856 200.547L12.3781 202.891C12.3781 202.891 13.6394 202.875 16.1618 202.652C18.6843 202.445 22.6427 202.955 22.6427 202.955C22.6427 202.955 21.071 203.402 17.9082 203.37C14.7454 203.354 13.0185 203.29 11.9124 203.737C10.8646 205.922 11.0393 211.441 11.3691 212.351C15.7932 211.856 21.168 212.079 24.3308 212.287C25.5726 212.366 27.0279 212.319 28.2309 212.271C30.1131 212.207 31.3937 212.159 30.3459 212.59C28.6384 213.292 13.4647 212.989 12.514 213.005C11.5632 213.02 10.9811 214.791 11.0005 215.126C11.0199 215.461 11.6602 216.035 13.0767 215.844C14.4931 215.652 18.2768 215.413 23.0113 215.413C65.0591 216.897 167.122 211.824 167.122 211.824C167.122 211.824 167.006 211.202 166.831 210.325C166.812 210.229 166.792 210.133 166.773 210.022C166.676 209.559 166.579 209.049 166.443 208.522C166.288 207.804 166.113 207.055 165.939 206.433C165.783 205.842 165.609 205.332 165.473 205.029C165.376 204.806 165.279 204.678 165.182 204.678C164.542 204.694 158.701 204.71 157.75 204.646C156.8 204.582 157.576 204.231 159.943 204.183C162.31 204.136 164.192 203.848 164.658 203.593C164.93 203.45 164.852 202.269 164.736 201.296C164.658 200.547 164.542 199.988 164.542 199.988C164.542 199.988 163.901 199.43 162 199.382C160.098 199.334 159.303 198.935 161.185 198.904C163.086 198.872 163.028 198.76 163.222 198.537C163.377 198.361 163.242 198.09 163.203 197.867C163.203 197.867 162.64 196.016 162.039 196.032C161.495 196.016 158.74 196.256 158.74 196.256Z" fill="#DC8E36"/>
<path d="M164.794 201.695L165.085 201.647C165.085 201.647 164.988 201.647 164.794 201.663C164.794 201.679 164.794 201.695 164.794 201.695Z" fill="#6C3203"/>
<path d="M166.618 209.224C166.695 209.224 166.734 209.224 166.734 209.224C166.734 209.224 166.695 209.224 166.618 209.224C166.618 209.224 166.618 209.241 166.618 209.224Z" fill="#6C3203"/>
<path d="M11.7766 204.231C11.7766 204.231 25.495 203.816 28.0175 203.513C30.3653 203.226 88.8479 202.078 96.7064 201.934C97.2303 201.918 97.6572 201.918 97.987 201.918C99.5975 201.934 102.178 201.918 105.031 201.87C111.376 201.759 119.137 201.503 120.883 201.424C123.309 201.296 159.729 199.509 162.912 199.43C162.892 199.43 162.873 199.43 162.853 199.43C162.271 199.414 161.049 199.414 159.419 199.446C156.722 199.493 152.938 199.637 149.116 200.02C144.032 200.53 118.07 201.216 112.404 201.328C110.192 201.36 108.038 201.36 106.04 201.28C105.399 201.248 104.448 201.248 103.245 201.28C91.2928 201.503 24.9905 203.402 21.4008 203.465C17.4425 203.545 11.7766 204.231 11.7766 204.231Z" fill="#CA7021"/>
<path d="M162.989 197.165C162.989 197.165 162.97 197.165 162.951 197.165C162.97 197.165 162.989 197.165 162.989 197.165ZM31.4132 200.945C31.4132 200.945 42.4538 200.61 44.4912 200.371C46.3928 200.148 99.2871 199.334 105.593 199.222C106.001 199.222 106.35 199.206 106.602 199.222C107.902 199.238 109.979 199.222 112.268 199.174C117.371 199.079 123.619 198.887 125.016 198.824C126.976 198.728 160.409 197.228 162.776 197.181C162.834 197.181 162.892 197.181 162.931 197.181C162.737 197.181 161.592 197.165 159.904 197.197C157.731 197.244 154.685 197.356 151.619 197.659C147.544 198.058 122.746 198.648 118.206 198.744C116.421 198.776 114.694 198.776 113.083 198.696C112.559 198.68 111.803 198.68 110.832 198.696C101.228 198.871 42.027 200.291 39.1552 200.355C35.973 200.403 31.4132 200.945 31.4132 200.945Z" fill="#CA7021"/>
<path d="M11.1363 209.351C11.5438 209.335 19.9844 208.41 22.7979 208.219C25.7861 207.996 81.688 205.922 85.4717 205.683C89.2554 205.443 113.51 203.753 116.828 203.609C119.409 203.497 154.917 202.301 161.825 201.87C154.122 202.189 111.9 203.338 103.731 203.768C93.7959 204.295 45.7718 205.635 40.106 206.081C34.4207 206.496 11.7766 209.256 11.1363 209.351Z" fill="#CA7021"/>
<path d="M118.089 214.36C115.547 213.818 58.7917 213.068 53.2617 213.18C47.7316 213.291 21.5561 214.185 18.5679 214.233C15.5604 214.296 13.0573 214.839 13.2125 214.918C13.6782 214.663 41.1344 213.993 53.1258 213.69C53.6497 213.674 84.0941 214.153 84.6762 214.153C96.9781 213.898 118.089 214.36 118.089 214.36Z" fill="#CA7021"/>
<path d="M11.3886 212.35C11.3886 212.35 12.3393 212.159 13.1155 211.983C13.1155 211.983 38.1462 209.351 44.6076 209.144C51.069 208.937 91.0406 207.996 93.4078 207.788C93.563 207.772 93.6212 207.772 93.5824 207.772C93.0197 207.788 44.2971 208.65 40.1642 208.729C35.9148 208.809 13.4065 210.755 11.1945 211.297C11.2527 211.792 11.3303 212.159 11.3886 212.35Z" fill="#CA7021"/>
<path d="M151.308 209.543C158.197 209.415 165.57 209.256 166.618 209.224C164.755 209.224 123.057 209.495 120.786 209.543C118.419 209.591 96.0079 209.75 96.0079 209.75C96.0079 209.75 109.823 206.895 112.171 206.448C114.538 205.986 151.114 204.088 153.326 203.88C155.538 203.673 164.813 202.253 164.813 202.253C164.813 202.253 157.091 202.891 152.531 203.402C147.971 203.896 118.439 204.502 110.599 206.225C102.76 207.964 92.2436 209.989 92.2436 209.989C92.2436 209.989 114.655 209.989 121.776 209.942C124.104 209.926 147.583 209.623 151.308 209.543Z" fill="#CA7021"/>
<path d="M155.519 205.061C157.052 204.821 157.75 204.63 157.75 204.63C157.75 204.63 156.858 204.805 155.519 205.061ZM165.725 207.246C165.725 207.246 155.616 206.927 152.298 206.991C148.98 207.054 120.573 207.453 123.251 207.326C125.191 207.23 151.929 205.73 155.519 205.061C154.879 205.156 154.122 205.268 153.21 205.38C150.066 205.778 113.161 207.916 116.964 207.932C120.709 207.948 165.415 207.246 165.725 207.246Z" fill="#CA7021"/>
<path opacity="0.4" d="M155.771 205.762C157.4 205.762 158.72 204.748 158.72 203.497C158.72 202.246 157.4 201.232 155.771 201.232C154.142 201.232 152.822 202.246 152.822 203.497C152.822 204.748 154.142 205.762 155.771 205.762Z" fill="#442309"/>
<path opacity="0.4" d="M284.999 200.227C284.999 201.471 283.68 202.492 282.05 202.492C280.42 202.492 279.101 201.471 279.101 200.227C279.101 198.983 280.42 197.962 282.05 197.962C283.68 197.962 284.999 198.983 284.999 200.227Z" fill="#442309"/>
<path d="M284.243 201.009C283.874 202.046 282.555 202.636 281.293 202.301C280.032 201.982 279.314 200.865 279.683 199.829C280.052 198.792 281.371 198.201 282.632 198.536C283.893 198.871 284.611 199.972 284.243 201.009Z" fill="#1B0600"/>
<path d="M283.855 200.977C283.486 202.014 282.167 202.604 280.905 202.269C279.644 201.95 278.926 200.833 279.295 199.797C279.663 198.76 280.983 198.17 282.244 198.505C283.505 198.824 284.223 199.924 283.855 200.977Z" fill="#2B1501"/>
<path d="M283.467 200.865C283.156 201.727 282.07 202.205 281.022 201.934C279.974 201.663 279.372 200.754 279.683 199.892C279.993 199.031 281.08 198.552 282.128 198.808C283.176 199.095 283.777 200.004 283.467 200.865Z" fill="#442309"/>
<path opacity="0.47" d="M280.226 201.998L282.943 198.84L282.749 198.728L280.032 201.854L280.226 201.998Z" fill="#442309"/>
<path d="M19.9607 193.849C20.7085 196.153 20.1208 216.54 20.1226 217.818C20.1244 219.096 21.6344 222.557 22.0052 222.536C22.3757 222.54 24.9961 218.974 24.8079 217.068C24.6198 215.162 24.4181 210.074 24.4969 203.711C26.6144 152.219 23.5654 33.6303 23.0097 13.0656C22.9807 11.9928 21.6358 11.5852 20.9589 12.4179C20.8046 12.6077 20.7144 12.8415 20.7012 13.0858L11.5845 182.473C11.5353 183.386 11.8078 184.288 12.3546 185.02L18.4136 193.142C18.7794 193.632 19.7766 193.265 19.9607 193.849Z" fill="url(#paint6_linear_1_724)"/>
<path d="M19.1008 220.591C19.2005 220.038 19.3735 219.034 19.3364 218.473C18.9562 212.719 19.2735 205.974 19.5254 201.927C19.6343 200.259 19.6055 198.303 19.5903 196.686C19.5885 196.521 19.5866 196.359 19.5849 196.202C19.5741 195.213 19.2596 194.248 18.6685 193.456C16.1846 190.127 10.9009 191.655 10.578 195.796L9.5789 208.611C9.58977 209.159 9.58234 209.758 9.57427 210.41C9.50548 213.735 14.729 217.94 17.2337 220.315C18.1518 221.185 18.8764 221.836 19.1008 220.591Z" fill="#71390B"/>
<path d="M12.8202 19.5742C12.8081 19.1046 12.8136 18.6613 12.8011 18.2178C12.7971 19.9912 12.8146 21.4779 12.8202 19.5742Z" fill="#71390B"/>
<path d="M8.73302 212.799C8.66459 211.56 8.70523 210.065 8.7844 208.666C8.83381 207.793 9.54618 207.788 9.56063 208.663L20.7184 13.0722C20.7319 12.8361 20.8194 12.6103 20.9686 12.4268C21.6338 11.6086 20.9122 10.4203 19.8827 10.6488C17.1552 11.2543 13.5718 12.1239 13.4361 12.5404C13.0318 13.8394 12.9247 13.9423 12.8383 15.2192C12.7965 15.7403 12.798 17.0443 12.8011 18.2179C12.8133 18.6614 12.8255 19.1049 12.8196 19.5742C12.8314 21.4782 12.7968 19.9912 12.8011 18.2179C12.7266 15.6872 12.4859 13.7544 12.2453 13.2298C12.1884 13.0993 11.9719 13.0554 11.6645 13.0678C9.1983 13.1672 7.20856 15.1853 7.12637 17.6521C7.0418 20.2068 6.98726 20.3365 6.98329 17.8068C6.97965 15.2509 6.60884 15.2724 6.32655 15.2689C4.75572 15.3016 3.26233 17.6303 3.17335 19.1158C3.08438 20.6012 4.57073 61.5905 4.79645 74.7113C4.5613 90.8517 5.0674 186.778 5.09324 200.366C5.12447 210.035 6.68835 216.157 7.5837 218.875C7.7773 219.463 8.53385 219.43 8.71816 218.84C8.73769 218.777 8.7497 218.714 8.75381 218.648C8.78493 218.154 8.91552 215.819 8.73302 212.799Z" fill="#71390B"/>
<path d="M3.35954 23.0869C3.38461 23.537 3.4084 23.9858 3.42562 24.4363C3.47708 25.7826 3.50992 27.1423 3.56887 28.4832C3.74204 33.0232 3.81328 64.3195 3.95149 68.833C4.0398 71.6767 4.09281 74.5201 4.14583 77.3634C3.92832 93.5039 4.41645 189.457 4.46026 203.018C4.49282 213.097 5.16997 217.552 5.51567 219.176C5.62096 219.67 6.01403 220.027 6.50735 220.137C7.42826 220.344 8.2929 219.645 8.25938 218.702C8.23047 217.889 8.18184 216.805 8.10004 215.451C8.06053 214.736 8.05738 213.935 8.07701 213.117C8.10624 211.899 8.94823 211.896 8.92302 213.114C8.89065 215.072 8.85212 216.62 8.86645 217.866C8.89119 220.02 10.5298 221.877 12.6668 222.148C16.4394 222.626 18.5241 219.468 18.511 215.665C18.4967 211.497 18.7062 207.405 18.8921 204.606C19.001 202.938 18.9723 200.981 18.9393 199.364C18.9001 196.834 18.8685 195.112 19.3274 196.526C20.0753 198.83 19.4875 219.217 19.4894 220.495C19.4912 221.773 21.4398 222.58 21.8106 222.558C22.1815 222.537 22.8272 221.684 22.6391 219.778C22.451 217.872 22.2493 212.784 22.3281 206.421C24.5165 153.606 21.2385 30.1979 20.8033 14.3869C20.779 13.5008 19.9574 12.8822 19.0934 13.0799C18.9872 13.1046 18.881 13.1294 18.7572 13.1539C18.2439 13.278 17.6777 13.4014 17.0933 13.5767C16.2968 13.7755 15.4647 13.9999 14.7737 14.226C14.1184 14.4266 13.5509 14.6542 13.2134 14.8326C12.9648 14.9599 12.8221 15.0886 12.8204 15.2189C12.8274 16.0797 12.7479 23.9286 12.6615 25.2054C12.5751 26.4823 12.1999 25.4344 12.1863 22.2525C12.1728 19.0707 11.8866 16.5374 11.612 15.9081C11.4578 15.5411 10.1509 15.6292 9.07279 15.7724C8.12893 15.8792 7.33015 16.4647 7.13455 17.3942C7.02807 17.9002 6.93852 18.5658 6.91015 19.4228C6.82558 21.9775 6.37128 23.0412 6.36731 20.5114C6.36367 17.9556 6.2392 18.0323 5.99544 17.7684C5.64421 17.3814 5.00269 17.8647 4.53277 18.0935C3.9411 18.3815 3.20127 18.8391 3.20586 19.3248C3.18635 19.8584 3.29806 21.9831 3.35954 23.0869Z" fill="#DC8E36"/>
<path d="M9.50258 15.6994C9.51305 15.6996 9.51478 15.6904 9.51348 15.68L9.51237 15.6711C9.5085 15.6401 9.47695 15.6425 9.47863 15.6736C9.4788 15.6767 9.47897 15.6799 9.47914 15.683C9.47964 15.6921 9.49351 15.6993 9.50258 15.6994Z" fill="#6C3203"/>
<path d="M17.8727 13.3516C17.874 13.2486 17.8746 13.1971 17.8746 13.1971L17.8727 13.3516C17.8727 13.3516 17.892 13.3518 17.8727 13.3516Z" fill="#6C3203"/>
<path d="M9.0872 208.422C9.0898 209.042 9.56864 209.021 9.55515 208.401C9.46976 204.479 9.36479 200.857 9.25023 199.531C8.97173 196.372 8.67466 117.765 8.64665 107.202C8.63772 106.498 8.64482 105.924 8.65031 105.481C8.69476 103.317 8.72006 99.8485 8.7146 96.0147C8.69668 87.4865 8.54356 77.0528 8.4844 74.7049C8.38363 71.4437 7.01372 22.4754 6.97846 18.198C6.97814 18.224 6.97782 18.2501 6.97749 18.2762C6.95016 19.0582 6.92982 20.701 6.93799 22.8918C6.94603 26.5169 7.04185 31.6036 7.40166 36.7457C7.88163 43.5845 8.20823 78.483 8.23745 86.0986C8.23592 89.0716 8.20008 91.966 8.07861 94.6507C8.03267 95.5108 8.01685 96.7885 8.03212 98.4056C8.08021 114.471 9.07636 203.597 9.0872 208.422Z" fill="#CA7021"/>
<path d="M4.47453 18.0626L4.47389 18.1147C4.47421 18.0887 4.47453 18.0626 4.47453 18.0626ZM5.94237 184.52C5.94236 185.007 6.30128 184.992 6.29077 184.505C6.22253 181.344 6.13903 178.422 6.0488 177.35C5.83345 174.791 5.81387 103.698 5.79532 95.2222C5.8021 94.6746 5.79027 94.205 5.81211 93.8663C5.85138 92.1194 5.86829 89.3291 5.85346 86.2516C5.83253 79.3924 5.72479 70.9934 5.67746 69.1151C5.60422 66.4802 4.50216 21.5315 4.48862 18.3496C4.48959 18.2714 4.49056 18.1932 4.49121 18.141C4.48798 18.4018 4.45128 19.94 4.45848 22.209C4.47524 25.1302 4.54805 29.2255 4.83224 33.3496C5.2055 38.8309 5.44562 72.1636 5.47592 78.2666C5.4815 80.6659 5.45276 82.9867 5.33775 85.1498C5.31139 85.8537 5.29879 86.8706 5.30029 88.1746C5.33453 101.084 5.91958 180.66 5.94237 184.52Z" fill="#CA7021"/>
<path d="M15.4265 222.298C15.4156 221.75 14.5328 210.395 14.3679 206.611C14.1707 202.592 12.8074 127.44 12.6057 122.352C12.404 117.264 10.9375 84.6468 10.834 80.1859C10.7534 76.7163 10.0211 28.9817 9.6597 19.6929C9.88437 30.0493 10.452 86.8054 10.7924 97.7891C11.2093 111.147 11.8921 175.702 12.2919 183.322C12.656 190.968 15.3313 221.436 15.4265 222.298Z" fill="#CA7021"/>
<path d="M21.9607 123.536C21.9404 119.213 21.3378 119.194 21.2297 123.515C20.7422 142.999 20.3467 162.195 20.3617 165.739C20.3932 173.172 20.9456 208.36 20.9488 212.377C20.9723 217.016 21.4758 216.965 21.398 212.325C21.2018 200.621 21.0232 177.716 20.924 165.929C20.9151 165.224 21.951 124.318 21.9607 123.536Z" fill="#CA7021"/>
<path d="M18.3283 222.115C18.644 222.044 18.7122 221.768 18.6618 221.449C18.5931 221.012 18.492 220.382 18.3928 219.803C18.378 219.717 18.368 219.64 18.3615 219.552C18.1986 217.345 15.8717 185.696 15.7542 177.314C15.6323 168.628 15.2566 114.9 15.0666 111.716C15.0516 111.507 15.0525 111.429 15.0519 111.481C15.0602 112.237 15.2021 177.725 15.2215 183.28C15.2382 188.717 16.8501 216.413 17.4906 221.633C17.5342 221.988 17.9793 222.194 18.3283 222.115Z" fill="#CA7021"/>
<path d="M17.9707 33.9296C17.9442 24.6711 17.8905 14.7601 17.8727 13.3516C17.8417 15.8549 17.4477 71.8949 17.4628 74.9464C17.4677 76.0934 17.4453 80.7408 17.4146 86.216C17.4023 88.4223 14.2111 88.6655 13.8968 86.4816C13.4246 83.2941 11.9338 34.1157 11.7412 31.1402C11.7039 30.5631 11.0767 30.6182 11.1204 31.1949C11.1467 31.5413 11.1728 31.878 11.1987 32.2027C11.6697 38.3373 11.8487 78.0325 13.6237 88.5907C14.0302 90.9854 17.7493 90.7194 17.7762 88.2905C17.8417 82.3633 17.8984 76.8349 17.9204 73.622C17.9415 70.4928 17.997 38.9372 17.9707 33.9296Z" fill="#CA7021"/>
<path d="M13.0833 28.2098C13.0694 28.09 13.0661 28.0904 13.0833 28.2098V28.2098ZM15.6721 32.5594C15.6721 32.2509 15.1634 32.2564 15.1644 32.5648C15.1798 37.0246 15.1481 75.2046 15.0516 71.6045C14.978 68.9956 13.7645 33.043 13.0833 28.2098C13.1785 29.0716 13.2894 30.0901 13.3977 31.3172C13.7865 35.5469 15.5364 85.1718 15.6174 80.0612C15.6688 76.8251 15.6738 50.821 15.6721 32.5594Z" fill="#CA7021"/>
<path d="M394.898 195.252C395.646 197.525 395.062 217.635 395.064 218.896C395.066 220.156 396.576 223.571 396.947 223.549C397.318 223.554 399.938 220.036 399.749 218.156C399.561 216.276 399.358 211.257 399.436 204.981C401.544 154.197 398.477 37.2504 397.917 16.9358C397.887 15.8668 396.55 15.4555 395.87 16.2807C395.713 16.4714 395.621 16.7074 395.608 16.9542L386.522 183.995C386.472 184.917 386.75 185.828 387.307 186.564L393.355 194.56C393.722 195.046 394.712 194.672 394.898 195.252Z" fill="url(#paint7_linear_1_724)"/>
<path d="M394.041 221.641C394.141 221.089 394.315 220.092 394.277 219.533C393.897 213.859 394.213 207.211 394.464 203.221C394.573 201.576 394.544 199.646 394.528 198.051C394.526 197.901 394.525 197.754 394.523 197.611C394.512 196.612 394.19 195.637 393.588 194.841C391.091 191.54 385.839 193.076 385.513 197.201L384.519 209.812C384.53 210.352 384.522 210.944 384.514 211.587C384.446 214.872 389.687 219.028 392.187 221.369C393.096 222.22 393.818 222.866 394.041 221.641Z" fill="#71390B"/>
<path d="M387.728 23.3443C387.716 22.8811 387.721 22.4439 387.709 22.0064C387.705 23.7556 387.723 25.2221 387.728 23.3443Z" fill="#71390B"/>
<path d="M383.673 213.943C383.605 212.721 383.645 211.247 383.724 209.867C383.774 208.996 384.486 208.991 384.5 209.863L395.625 16.9352C395.639 16.7003 395.727 16.4759 395.876 16.2944C396.538 15.4909 395.831 14.3136 394.814 14.536C392.083 15.133 388.479 15.9941 388.343 16.4062C387.939 17.6874 387.832 17.789 387.745 19.0484C387.704 19.5624 387.706 20.8487 387.709 22.0064C387.721 22.4439 387.733 22.8813 387.728 23.3443C387.74 25.2224 387.705 23.7556 387.709 22.0064C387.634 19.5101 387.393 17.6035 387.152 17.086C387.092 16.9509 386.857 16.9099 386.525 16.9283C384.092 17.0635 382.116 19.0115 382.034 21.4473C381.95 23.9674 381.895 24.0953 381.891 21.5999C381.887 19.0788 381.516 19.0999 381.234 19.0964C379.663 19.1284 378.17 21.4252 378.081 22.8905C377.992 24.3557 379.486 64.7884 379.714 77.7309C379.481 93.6519 380.003 188.275 380.032 201.679C380.064 211.22 381.631 217.26 382.526 219.94C382.721 220.523 383.473 220.491 383.659 219.904C383.679 219.841 383.691 219.777 383.695 219.71C383.727 219.217 383.856 216.917 383.673 213.943Z" fill="#71390B"/>
<path d="M378.267 26.789C378.293 27.2452 378.317 27.7004 378.335 28.1571C378.386 29.4791 378.419 30.814 378.478 32.1306C378.652 36.6089 378.729 67.4801 378.868 71.9322C378.956 74.7374 379.01 77.5421 379.063 80.3468C378.849 96.268 379.353 190.917 379.399 204.295C379.433 214.217 380.108 218.613 380.455 220.223C380.562 220.717 380.956 221.072 381.449 221.181C382.371 221.385 383.234 220.686 383.2 219.742C383.171 218.943 383.122 217.882 383.041 216.559C383.001 215.854 382.998 215.064 383.017 214.257C383.047 213.041 383.889 213.038 383.863 214.254C383.832 216.167 383.794 217.684 383.807 218.907C383.831 221.054 385.468 222.897 387.598 223.165C391.37 223.639 393.462 220.481 393.452 216.68C393.44 212.6 393.647 208.604 393.831 205.863C393.94 204.218 393.911 202.288 393.877 200.692C393.838 198.197 393.806 196.498 394.265 197.893C395.013 200.166 394.429 220.276 394.431 221.537C394.433 222.797 396.382 223.593 396.753 223.572C397.123 223.551 397.769 222.71 397.581 220.83C397.392 218.949 397.19 213.93 397.267 207.654C399.446 155.577 396.151 33.9208 395.711 18.2472C395.686 17.3607 394.865 16.7441 394 16.9392C393.894 16.9636 393.788 16.988 393.664 17.0122C393.151 17.1344 392.585 17.2561 392 17.4289C391.204 17.6248 390.372 17.8461 389.681 18.069C389.025 18.2667 388.458 18.4912 388.12 18.6671C387.872 18.7927 387.729 18.9195 387.728 19.0481C387.735 19.8972 387.656 27.6394 387.57 28.8989C387.484 30.1584 387.109 29.1247 387.095 25.9861C387.081 22.8474 386.794 20.3485 386.519 19.7277C386.365 19.3657 385.058 19.4524 383.98 19.5934C383.036 19.6987 382.235 20.2801 382.039 21.2095C381.934 21.7065 381.846 22.3578 381.818 23.1939C381.734 25.7139 381.28 26.763 381.275 24.2676C381.271 21.7465 381.147 21.8221 380.903 21.5619C380.55 21.1778 379.91 21.6566 379.44 21.8825C378.848 22.1665 378.109 22.6177 378.114 23.0965C378.094 23.62 378.205 25.6951 378.267 26.789Z" fill="#DC8E36"/>
<path d="M384.41 19.5216C384.42 19.5217 384.422 19.5125 384.421 19.5021L384.42 19.4932C384.416 19.4623 384.384 19.4647 384.386 19.4958C384.386 19.4989 384.386 19.502 384.386 19.5052C384.387 19.5142 384.401 19.5215 384.41 19.5216Z" fill="#6C3203"/>
<path d="M392.779 17.207C392.781 17.1044 392.781 17.0531 392.781 17.0531L392.779 17.207C392.779 17.207 392.799 17.2073 392.779 17.207Z" fill="#6C3203"/>
<path d="M384.027 209.626C384.03 210.245 384.509 210.224 384.495 209.605C384.409 205.736 384.303 202.163 384.188 200.855C383.909 197.739 383.599 120.2 383.569 109.781C383.56 109.086 383.567 108.52 383.573 108.083C383.617 105.948 383.641 102.527 383.635 98.7455C383.616 90.3331 383.461 80.0411 383.402 77.7252C383.3 74.5083 381.922 26.2051 381.886 21.9857C381.886 22.0114 381.886 22.0372 381.885 22.0629C381.858 22.8343 381.838 24.4547 381.846 26.6158C381.855 30.1917 381.952 35.2093 382.312 40.2816C382.794 47.0275 383.126 81.4519 383.157 88.964C383.156 91.8967 383.12 94.7517 382.999 97.3999C382.953 98.2483 382.938 99.5086 382.953 101.104C383.004 116.951 384.015 204.866 384.027 209.626Z" fill="#CA7021"/>
<path d="M379.382 21.8526L379.382 21.904C379.382 21.8783 379.382 21.8526 379.382 21.8526ZM380.878 186.049C380.878 186.536 381.237 186.52 381.226 186.033C381.158 182.915 381.074 180.033 380.983 178.976C380.767 176.452 380.736 106.325 380.716 97.9641C380.723 97.4239 380.711 96.9607 380.732 96.6266C380.771 94.9035 380.788 92.1511 380.773 89.1153C380.75 82.3493 380.641 74.0645 380.594 72.2117C380.52 69.6125 379.41 25.2744 379.396 22.1357C379.397 22.0586 379.398 21.9814 379.399 21.93C379.396 22.1872 379.359 23.7045 379.367 25.9427C379.384 28.8241 379.458 32.8639 379.742 36.932C380.117 42.3389 380.362 75.2187 380.394 81.2387C380.4 83.6055 380.371 85.8947 380.257 88.0285C380.23 88.7227 380.218 89.7259 380.22 91.0121C380.256 103.747 380.855 182.241 380.878 186.049Z" fill="#CA7021"/>
<path d="M390.369 223.312C390.358 222.772 389.473 211.571 389.307 207.838C389.109 203.874 387.733 129.743 387.531 124.724C387.328 119.705 385.856 87.5306 385.752 83.1303C385.671 79.7079 384.931 32.6217 384.568 23.4591C384.794 33.6747 385.371 89.6598 385.714 100.494C386.133 113.671 386.826 177.349 387.227 184.866C387.593 192.408 390.273 222.462 390.369 223.312Z" fill="#CA7021"/>
<path d="M396.886 125.895C396.865 121.578 396.264 121.558 396.155 125.874C395.671 145.093 395.279 164.028 395.294 167.525C395.327 174.857 395.885 209.567 395.889 213.529C395.913 218.101 396.417 218.049 396.338 213.477C396.14 201.931 395.958 179.339 395.857 167.712C395.847 167.017 396.876 126.667 396.886 125.895Z" fill="#CA7021"/>
<path d="M393.267 223.135C393.584 223.064 393.653 222.787 393.602 222.466C393.533 222.036 393.433 221.42 393.334 220.854C393.32 220.768 393.309 220.692 393.303 220.605C393.139 218.422 390.808 187.208 390.689 178.941C390.565 170.373 390.18 117.374 389.99 114.234C389.975 114.028 389.976 113.95 389.975 114.002C389.984 114.748 390.137 179.346 390.157 184.825C390.174 190.187 391.79 217.492 392.432 222.653C392.476 223.006 392.919 223.212 393.267 223.135Z" fill="#CA7021"/>
<path d="M392.881 37.5055C392.853 28.3727 392.798 18.5964 392.779 17.207C392.749 19.6763 392.364 74.9549 392.38 77.9649C392.385 79.0957 392.364 83.6759 392.334 89.073C392.322 91.2773 389.135 91.5239 388.816 89.3427C388.343 86.1984 386.844 37.688 386.651 34.7529C386.613 34.1761 385.986 34.232 386.03 34.8084C386.057 35.1495 386.083 35.4811 386.109 35.8009C386.581 41.8522 386.766 81.0081 388.543 91.4231C388.955 93.8148 392.669 93.545 392.696 91.1182C392.76 85.2751 392.816 79.826 392.837 76.6586C392.858 73.5718 392.908 42.445 392.881 37.5055Z" fill="#CA7021"/>
<path d="M387.993 31.8625C387.979 31.7429 387.975 31.7433 387.993 31.8625V31.8625ZM390.582 36.1535C390.582 35.8451 390.073 35.8503 390.074 36.1587C390.091 40.5579 390.065 78.2192 389.968 74.6679C389.894 72.0945 388.675 36.6301 387.993 31.8625C388.088 32.7127 388.199 33.7173 388.308 34.9277C388.697 39.1 390.455 88.0511 390.535 83.0099C390.586 79.8177 390.587 54.167 390.582 36.1535Z" fill="#CA7021"/>
<path opacity="0.4" d="M16.007 28.1141C16.007 29.6259 14.6875 30.8662 13.0576 30.8662C11.4277 30.8662 10.1083 29.6259 10.1083 28.1141C10.1083 26.6024 11.4277 25.362 13.0576 25.362C14.6875 25.362 16.007 26.6024 16.007 28.1141Z" fill="#442309"/>
<path d="M15.2503 29.0638C14.8816 30.3236 13.5621 31.0407 12.3009 30.6337C11.0397 30.2461 10.3217 28.8894 10.6904 27.6296C11.0591 26.3698 12.3785 25.6527 13.6397 26.0597C14.901 26.4667 15.6189 27.804 15.2503 29.0638Z" fill="#1B0600"/>
<path d="M14.8622 29.0251C14.4935 30.2848 13.1741 31.0019 11.9128 30.5949C10.6516 30.2073 9.93365 28.8506 10.3023 27.5909C10.671 26.3311 11.9904 25.614 13.2517 26.021C14.5129 26.4086 15.2308 27.7459 14.8622 29.0251Z" fill="#2B1501"/>
<path d="M14.4741 28.8894C14.1636 29.936 13.077 30.5174 12.0292 30.1879C10.9814 29.8584 10.3799 28.7537 10.6904 27.7071C11.0008 26.6606 12.0874 26.0791 13.1352 26.3892C14.183 26.7381 14.7845 27.8428 14.4741 28.8894Z" fill="#442309"/>
<path opacity="0.47" d="M11.2337 30.2654L13.9502 26.428L13.7562 26.2923L11.0396 30.091L11.2337 30.2654Z" fill="#442309"/>
<path opacity="0.4" d="M17.8987 206.752C17.8987 208.264 16.5793 209.504 14.9494 209.504C13.3195 209.504 12 208.264 12 206.752C12 205.24 13.3195 204 14.9494 204C16.5793 204 17.8987 205.24 17.8987 206.752Z" fill="#442309"/>
<path d="M17.142 207.702C16.7733 208.962 15.4539 209.679 14.1926 209.272C12.9314 208.884 12.2134 207.527 12.5821 206.268C12.9508 205.008 14.2702 204.291 15.5315 204.698C16.7927 205.105 17.5106 206.442 17.142 207.702Z" fill="#1B0600"/>
<path d="M16.7539 207.663C16.3852 208.923 15.0658 209.64 13.8046 209.233C12.5433 208.845 11.8254 207.489 12.194 206.229C12.5627 204.969 13.8822 204.252 15.1434 204.659C16.4046 205.047 17.1226 206.384 16.7539 207.663Z" fill="#2B1501"/>
<path d="M16.3658 207.527C16.0553 208.574 14.9687 209.155 13.9209 208.826C12.8732 208.496 12.2716 207.392 12.5821 206.345C12.8926 205.299 13.9791 204.717 15.0269 205.027C16.0747 205.376 16.6763 206.481 16.3658 207.527Z" fill="#442309"/>
<path opacity="0.47" d="M13.1254 208.903L15.8419 205.066L15.6479 204.93L12.9313 208.729L13.1254 208.903Z" fill="#442309"/>
<path opacity="0.4" d="M389.899 203.752C389.899 205.264 388.579 206.504 386.949 206.504C385.319 206.504 384 205.264 384 203.752C384 202.24 385.319 201 386.949 201C388.579 201 389.899 202.24 389.899 203.752Z" fill="#442309"/>
<path d="M389.142 204.702C388.773 205.962 387.454 206.679 386.193 206.272C384.931 205.884 384.213 204.527 384.582 203.268C384.951 202.008 386.27 201.291 387.531 201.698C388.793 202.105 389.511 203.442 389.142 204.702Z" fill="#1B0600"/>
<path d="M388.754 204.663C388.385 205.923 387.066 206.64 385.805 206.233C384.543 205.845 383.825 204.489 384.194 203.229C384.563 201.969 385.882 201.252 387.143 201.659C388.405 202.047 389.123 203.384 388.754 204.663Z" fill="#2B1501"/>
<path d="M388.366 204.527C388.055 205.574 386.969 206.155 385.921 205.826C384.873 205.496 384.272 204.392 384.582 203.345C384.893 202.299 385.979 201.717 387.027 202.027C388.075 202.376 388.676 203.481 388.366 204.527Z" fill="#442309"/>
<path opacity="0.47" d="M385.125 205.903L387.842 202.066L387.648 201.93L384.931 205.729L385.125 205.903Z" fill="#442309"/>
<path opacity="0.4" d="M390.913 32.0159C390.913 33.5277 389.594 34.7681 387.964 34.7681C386.334 34.7681 385.015 33.5277 385.015 32.0159C385.015 30.5042 386.334 29.2638 387.964 29.2638C389.594 29.2638 390.913 30.5042 390.913 32.0159Z" fill="#442309"/>
<path d="M390.157 32.9657C389.788 34.2254 388.468 34.9425 387.207 34.5355C385.946 34.1479 385.228 32.7912 385.597 31.5315C385.965 30.2717 387.285 29.5546 388.546 29.9616C389.807 30.3686 390.525 31.7059 390.157 32.9657Z" fill="#1B0600"/>
<path d="M389.768 32.9269C389.4 34.1867 388.08 34.9038 386.819 34.4968C385.558 34.1091 384.84 32.7525 385.209 31.4927C385.577 30.2329 386.897 29.5158 388.158 29.9228C389.419 30.3104 390.137 31.6477 389.768 32.9269Z" fill="#2B1501"/>
<path d="M389.38 32.7912C389.07 33.8378 387.983 34.4193 386.936 34.0898C385.888 33.7603 385.286 32.6556 385.597 31.609C385.907 30.5624 386.994 29.981 388.041 30.2911C389.089 30.6399 389.691 31.7447 389.38 32.7912Z" fill="#442309"/>
<path opacity="0.47" d="M386.14 34.1673L388.856 30.3298L388.662 30.1941L385.946 33.9928L386.14 34.1673Z" fill="#442309"/>
<path opacity="0.4" d="M155.498 23.2368C155.498 24.7485 154.179 25.9889 152.549 25.9889C150.919 25.9889 149.599 24.7485 149.599 23.2368C149.599 21.7251 150.919 20.4847 152.549 20.4847C154.179 20.4847 155.498 21.7251 155.498 23.2368Z" fill="#442309"/>
<path d="M154.741 24.1865C154.373 25.4463 153.053 26.1634 151.792 25.7564C150.531 25.3688 149.813 24.0121 150.181 22.7523C150.55 21.4925 151.869 20.7754 153.131 21.1824C154.392 21.5894 155.11 22.9267 154.741 24.1865Z" fill="#1B0600"/>
<path d="M154.353 24.1477C153.984 25.4075 152.665 26.1246 151.404 25.7176C150.143 25.33 149.425 23.9733 149.793 22.7135C150.162 21.4538 151.481 20.7367 152.743 21.1437C154.004 21.5313 154.722 22.8686 154.353 24.1477Z" fill="#2B1501"/>
<path d="M153.965 24.0121C153.655 25.0587 152.568 25.6401 151.52 25.3106C150.472 24.9811 149.871 23.8764 150.181 22.8298C150.492 21.7832 151.578 21.2018 152.626 21.5119C153.674 21.8608 154.276 22.9655 153.965 24.0121Z" fill="#442309"/>
<path opacity="0.47" d="M150.725 25.3881L153.441 21.5507L153.247 21.415L150.531 25.2137L150.725 25.3881Z" fill="#442309"/>
<path opacity="0.4" d="M158.899 203.752C158.899 205.264 157.579 206.504 155.949 206.504C154.319 206.504 153 205.264 153 203.752C153 202.24 154.319 201 155.949 201C157.579 201 158.899 202.24 158.899 203.752Z" fill="#442309"/>
<path d="M158.142 204.702C157.773 205.962 156.454 206.679 155.193 206.272C153.931 205.884 153.213 204.527 153.582 203.268C153.951 202.008 155.27 201.291 156.531 201.698C157.793 202.105 158.511 203.442 158.142 204.702Z" fill="#1B0600"/>
<path d="M157.754 204.663C157.385 205.923 156.066 206.64 154.805 206.233C153.543 205.845 152.825 204.489 153.194 203.229C153.563 201.969 154.882 201.252 156.143 201.659C157.405 202.047 158.123 203.384 157.754 204.663Z" fill="#2B1501"/>
<path d="M157.366 204.527C157.055 205.574 155.969 206.155 154.921 205.826C153.873 205.496 153.272 204.392 153.582 203.345C153.893 202.299 154.979 201.717 156.027 202.027C157.075 202.376 157.676 203.481 157.366 204.527Z" fill="#442309"/>
<path opacity="0.47" d="M154.125 205.903L156.842 202.066L156.648 201.93L153.931 205.729L154.125 205.903Z" fill="#442309"/>
<path opacity="0.4" d="M281.332 20.3104C281.332 21.8222 280.013 23.0626 278.383 23.0626C276.753 23.0626 275.434 21.8222 275.434 20.3104C275.434 18.7987 276.753 17.5583 278.383 17.5583C280.013 17.5583 281.332 18.7987 281.332 20.3104Z" fill="#442309"/>
<path d="M280.576 21.2602C280.207 22.5199 278.888 23.237 277.626 22.83C276.365 22.4424 275.647 21.0857 276.016 19.8259C276.385 18.5662 277.704 17.8491 278.965 18.2561C280.226 18.6631 280.944 20.0004 280.576 21.2602Z" fill="#1B0600"/>
<path d="M280.188 21.2214C279.819 22.4812 278.5 23.1983 277.238 22.7913C275.977 22.4036 275.259 21.0469 275.628 19.7872C275.996 18.5274 277.316 17.8103 278.577 18.2173C279.838 18.6049 280.556 19.9422 280.188 21.2214Z" fill="#2B1501"/>
<path d="M279.8 21.0857C279.489 22.1323 278.403 22.7138 277.355 22.3843C276.307 22.0548 275.705 20.9501 276.016 19.9035C276.326 18.8569 277.413 18.2755 278.461 18.5856C279.509 18.9344 280.11 20.0392 279.8 21.0857Z" fill="#442309"/>
<path opacity="0.47" d="M276.559 22.4618L279.276 18.6243L279.082 18.4886L276.365 22.2873L276.559 22.4618Z" fill="#442309"/>
<defs>
<linearGradient id="paint0_linear_1_724" x1="148.452" y1="31.1948" x2="288.129" y2="32.5675" gradientUnits="userSpaceOnUse">
<stop stop-color="#301504"/>
<stop offset="0.4601" stop-color="#8D5F31"/>
<stop offset="1" stop-color="#442309"/>
</linearGradient>
<linearGradient id="paint1_linear_1_724" x1="268.358" y1="23.9946" x2="389.934" y2="45.4501" gradientUnits="userSpaceOnUse">
<stop stop-color="#301504"/>
<stop offset="0.4601" stop-color="#8D5F31"/>
<stop offset="1" stop-color="#442309"/>
</linearGradient>
<linearGradient id="paint2_linear_1_724" x1="74.3347" y1="13.6969" x2="87.5862" y2="57.3652" gradientUnits="userSpaceOnUse">
<stop stop-color="#301504"/>
<stop offset="0.4601" stop-color="#8D5F31"/>
<stop offset="1" stop-color="#442309"/>
</linearGradient>
<linearGradient id="paint3_linear_1_724" x1="152.27" y1="211.195" x2="291.947" y2="212.568" gradientUnits="userSpaceOnUse">
<stop stop-color="#301504"/>
<stop offset="0.4601" stop-color="#8D5F31"/>
<stop offset="1" stop-color="#442309"/>
</linearGradient>
<linearGradient id="paint4_linear_1_724" x1="272.148" y1="205.085" x2="394.088" y2="224.367" gradientUnits="userSpaceOnUse">
<stop stop-color="#301504"/>
<stop offset="0.4601" stop-color="#8D5F31"/>
<stop offset="1" stop-color="#442309"/>
</linearGradient>
<linearGradient id="paint5_linear_1_724" x1="78.1528" y1="193.697" x2="91.4043" y2="237.365" gradientUnits="userSpaceOnUse">
<stop stop-color="#301504"/>
<stop offset="0.4601" stop-color="#8D5F31"/>
<stop offset="1" stop-color="#442309"/>
</linearGradient>
<linearGradient id="paint6_linear_1_724" x1="-0.772748" y1="132.024" x2="49.0297" y2="120.238" gradientUnits="userSpaceOnUse">
<stop stop-color="#301504"/>
<stop offset="0.4601" stop-color="#8D5F31"/>
<stop offset="1" stop-color="#442309"/>
</linearGradient>
<linearGradient id="paint7_linear_1_724" x1="374.154" y1="134.263" x2="423.878" y2="122.327" gradientUnits="userSpaceOnUse">
<stop stop-color="#301504"/>
<stop offset="0.4601" stop-color="#8D5F31"/>
<stop offset="1" stop-color="#442309"/>
</linearGradient>
</defs>
</svg>
